<?xml version="1.0" encoding="UTF-8"?><svg id="Layer_2" xmlns="http://www.w3.org/2000/svg" viewBox="0 0 87.42 76.98"><defs><style>.cls-1{fill:#fff;}</style></defs><g id="Layer_2-2"><path class="cls-1" d="m78.58,76.98C63.79,51.34,49.06,25.82,34.25.16,34.76.07,34.99,0,35.21,0c4.38.02,8.76.2,13.13.02,4.46-.19,7.45,1.72,9.58,5.49,4.14,7.33,8.34,14.62,12.53,21.92,5.03,8.77,10.08,17.52,15.12,26.28.93,1.61,1.77,3.23,1.84,5.18.07,1.93-.35,3.64-1.33,5.3-2.23,3.76-4.37,7.58-6.55,11.36-.26.46-.58.89-.94,1.42Z"/><path class="cls-1" d="m0,59.4c.57-.03.93-.06,1.29-.06,17.22,0,34.44,0,51.67,0,.73,0,1.34.04,1.77.8,3.02,5.31,6.07,10.59,9.11,15.88.16.28.26.58.43.95-.94,0-1.78,0-2.62,0-14.95-.01-29.9-.08-44.85,0-4.58.02-7.89-1.63-10.06-5.79-2.05-3.94-4.41-7.72-6.74-11.77Z"/><path class="cls-1" d="m7.21,46.73c6.63-11.49,13.18-22.84,19.89-34.45,6.64,11.52,13.19,22.86,19.87,34.45H7.21Z"/></g></svg>