<?xml version="1.0" encoding="UTF-8"?><svg id="Layer_2" xmlns="http://www.w3.org/2000/svg" viewBox="0 0 87.54 87.47"><defs><style>.cls-1{fill:#fff;}</style></defs><g id="Layer_2-2"><path class="cls-1" d="m43.75,87.46c-7.59,0-15.19.01-22.78,0-3.35,0-6.73-.11-9.84-1.52-6.34-2.88-10.1-7.78-10.92-14.78-.13-1.15-.19-2.31-.2-3.46C0,51.63,0,35.57,0,19.5c0-4.21.78-8.21,3.32-11.7C7.03,2.74,12,.04,18.31.02,35.52,0,52.73-.02,69.94.06c1.89,0,3.9.42,5.65,1.15,7.29,3.05,11.48,8.57,11.73,16.53.27,8.58.12,17.18.15,25.76.03,7.8.08,15.61.07,23.41,0,3.6-.3,7.16-2.07,10.44-3.7,6.87-9.58,10-17.2,10.06-8.17.06-16.34.01-24.52.01v.04Zm-.07-83.49s0,.02,0,.04c-8.58,0-17.17-.07-25.75.03-4.48.05-8.06,2.2-10.85,5.61-2.58,3.14-3.1,6.95-3.11,10.84-.02,15.73-.03,31.47.01,47.2,0,1.63.18,3.32.61,4.89,1.86,6.69,7.59,10.92,14.89,10.94,16.34.05,32.69.07,49.03-.05,2.12-.01,4.44-.48,6.31-1.43,5.61-2.86,8.78-7.44,8.62-13.99-.08-3.51-.04-7.02-.04-10.53,0-12.68.02-25.35.04-38.03,0-2.25-.11-4.5-1.17-6.51-3.02-5.75-7.58-9.07-14.32-9.02-8.09.07-16.18.02-24.27.02Z"/><path d="m43.68,3.97c8.09,0,16.18.05,24.27-.02,6.74-.06,11.3,3.27,14.32,9.02,1.06,2.02,1.17,4.27,1.17,6.51-.02,12.68-.03,25.35-.04,38.03,0,3.51-.04,7.02.04,10.53.16,6.56-3,11.13-8.62,13.99-1.87.95-4.19,1.42-6.31,1.43-16.34.11-32.69.1-49.03.05-7.3-.02-13.03-4.25-14.89-10.94-.44-1.57-.61-3.26-.61-4.89-.04-15.73-.04-31.47-.01-47.2,0-3.89.53-7.7,3.11-10.84,2.8-3.41,6.37-5.56,10.85-5.61,8.58-.1,17.17-.03,25.75-.03,0-.01,0-.02,0-.04Zm-22.1,40.44c.01,11.12,9.71,21.64,22.79,21.1,12.45-.52,21.73-10.54,21.13-23.17-.56-11.9-10.63-21.41-23.19-20.75-11.39.6-21.34,10.1-20.73,22.83Zm52.41-26.43c.04-3.13-2.24-5.45-5.4-5.49-3.27-.05-5.68,2.26-5.72,5.49-.04,2.97,2.4,5.49,5.23,5.64,3.21.17,6.22-2.94,5.89-5.64Z"/><path class="cls-1" d="m21.58,44.41c-.61-12.73,9.34-22.23,20.73-22.83,12.56-.66,22.63,8.85,23.19,20.75.6,12.63-8.69,22.66-21.13,23.17-13.08.54-22.78-9.98-22.79-21.1Zm3.86-.56c.01,9.47,8.45,18,17.93,17.85,10.13-.16,18.04-8.01,18.28-18.11.23-9.62-8.65-18.28-18.21-18.22-9.81.06-18.02,8.48-18,18.48Z"/><path class="cls-1" d="m73.99,17.98c.33,2.7-2.68,5.81-5.89,5.64-2.84-.15-5.27-2.67-5.23-5.64.04-3.23,2.45-5.54,5.72-5.49,3.16.04,5.44,2.36,5.4,5.49Z"/><path d="m25.44,43.85c-.01-10,8.19-18.42,18-18.48,9.56-.06,18.44,8.61,18.21,18.22-.24,10.09-8.15,17.95-18.28,18.11-9.49.15-17.92-8.37-17.93-17.85Z"/></g></svg>