<?xml version="1.0" encoding="UTF-8"?>
<svg id="Layer_2" data-name="Layer 2" xmlns="http://www.w3.org/2000/svg" viewBox="0 0 438.1 62.29">
  <defs>
    <style>
      .cls-1 {
        fill: #f04d69;
      }

      .cls-2 {
        isolation: isolate;
      }
    </style>
  </defs>
  <g id="Layer_1-2" data-name="Layer 1">
    <g class="cls-2">
      <path class="cls-1" d="M56.05,12.72c-.5,1.41-.91,2.82-.91,3.06s-.33,.91-.75,1.41c-.41,.5-.75,.99-.75,1.16s-.17,.5-.41,.75c-.25,.25-.66,.91-.91,1.49-.25,.58-.99,1.41-1.57,1.9-.58,.5-2.07,1.9-3.31,3.15-1.24,1.24-2.4,2.24-2.65,2.24s-.83,.25-1.24,.58c-.41,.33-.91,.58-1.08,.58s-.91,.41-1.74,.99c-.83,.58-1.66,.91-1.82,.83-.33-.17-1.74,.41-4.55,1.9-.66,.33-1.49,.58-1.82,.58s-.99,.25-1.49,.58c-.58,.33-1.24,.75-1.49,.83s-1.08,.75-1.9,1.41c-.83,.66-1.66,1.24-1.9,1.24-.5,0-3.06,1.16-3.81,1.74-.5,.41-.5,.5-.08,.83,.25,.25,.5,.66,.5,.91s.08,.5,.25,.58c.17,.08,.91,.91,1.74,1.9,1.74,2.15,2.48,2.82,3.31,3.06,.33,.08,.58,.25,.58,.41,0,.25,1.41,.91,6.21,2.82,1.16,.5,2.32,.91,2.57,.91,.33,0,1.57,.58,4.72,2.24,.5,.25,1.41,.58,2.07,.66,.66,.08,1.57,.41,1.99,.75,.41,.33,1.16,.58,1.57,.66s1.24,.17,1.82,.25c.58,.08,1.24,0,1.57-.25,.91-.66,1.74-.25,2.07,1.08,.5,1.74,.41,1.9-.83,2.65-.58,.33-1.16,.83-1.24,1.08-.08,.25-.5,.5-.91,.5s-.91,.17-1.08,.33c-.25,.25-1.08,.33-2.32,.17-1.08-.08-2.98-.25-4.3-.33-1.33-.08-2.73-.33-3.15-.5-.41-.17-1.49-.5-2.4-.75-1.16-.33-1.66-.66-1.66-1.08,0-.58-.75-1.16-1.16-.91-.17,.08-.08,.33,.17,.5,.33,.25,.25,.33-.25,.33-1.16,0-5.13-2.65-5.63-3.73-.33-.66-.99-1.24-1.9-1.66-.75-.33-1.41-.83-1.49-1.08-.08-.25-.33-.5-.58-.5-.66,0-2.65-2.07-3.15-3.23-.25-.58-.91-1.24-1.57-1.57-.58-.33-1.08-.75-1.08-.91s-.17-.33-.41-.33-.66-.33-.91-.75q-.41-.75-.66,.91c-.17,.91-.5,1.9-.75,2.24-.25,.33-.41,.75-.33,.99,.08,.25,0,.58-.17,.83-.17,.25-.5,1.32-.75,2.4-.25,1.08-.66,2.65-.91,3.56-.25,.91-.66,2.24-.83,2.98-.25,1.08-.66,1.57-1.74,2.24-1.16,.75-1.57,.83-3.48,.75-1.99-.08-2.24-.17-3.23-1.16-.58-.58-1.32-1.16-1.66-1.24-.33-.08-.75-.58-.99-1.08-.25-.5-.58-1.08-.83-1.24-.25-.17-.5-.91-.58-1.66-.17-1.08-.08-1.32,.33-1.32,.25,0,.75-.33,1.08-.66,.33-.33,.75-.66,.91-.66,.91,0,2.81-4.97,3.31-8.78,.08-.58,.25-1.24,.41-1.41,.41-.5,2.32-5.96,2.32-6.62,0-.25,.33-1.16,.75-1.99s.83-1.82,.99-2.15c.17-.33,.41-.99,.58-1.49,.17-.5,.33-1.32,.33-1.82,0-1.24,.58-2.81,1.66-4.39,.5-.75,.91-1.57,.91-1.82s.17-.83,.33-1.24c.33-.91,.83-2.73,1.41-5.13,.25-.99,.91-2.65,1.49-3.73,.58-1.08,1.41-2.65,1.9-3.56,.5-.91,.91-1.99,.91-2.4,0-.91,.83-2.24,1.57-2.48,.75-.25,5.3,1.74,6.71,2.98,1.24,1.08,1.24,1.16,.83,2.24-.25,.58-.75,2.48-1.08,4.22-.91,4.47-2.32,8.78-3.39,10.35-.25,.41-.66,1.49-.91,2.4-.25,.91-.58,1.9-.75,2.24-.83,2.07-1.08,2.82-.91,2.98,.17,.08,.41,0,.58-.25,.25-.41,.33-.41,.58,0,.25,.41,.58,.33,1.66-.5,.75-.58,1.49-1.08,1.74-1.08s.83-.33,1.33-.75,1.32-.75,1.82-.75,1.24-.33,1.66-.75,1.32-.99,1.99-1.32c.66-.33,1.24-.83,1.24-1.08,0-.75,1.24-2.15,2.4-2.73,.83-.41,1.08-.75,1.08-1.41s.58-1.41,2.48-3.06c3.15-2.73,6.62-6.87,6.62-7.87,0-.41,.58-1.49,1.32-2.4,1.49-1.74,1.82-1.74,3.89-.33,.66,.41,1.49,.75,1.9,.75s.99,.41,1.41,1.08c.41,.58,.83,1.08,.99,1.16,.41,.17,.25,1.08-.75,3.73l.33-.17Z"/>
      <path class="cls-1" d="M65.9,14.12c.41-.08,1.57,.08,1.99,.25,.25,.08,.58,.17,.75,.17,.08,0,.17,.08,.17,.17,0,.17,.75,1.32,.99,1.66,.58,.66,.83,1.08,.83,1.57v3.31c0,.83,.08,1.99,.17,2.57,.17,1.24,.17,1.9,.08,2.4-.08,.17-.08,.75,0,1.24,.08,.91-.08,2.4-.41,2.98-.08,.17-.08,.25,.08,.33,.17,.08,.17,.17-.08,.41-.33,.33-.25,.75,.08,.58,.25-.17,.41,0,.25,.25-.08,.08-.08,.5,0,.83s.08,.66,0,.75c-.25,.17-.08,.41,.25,.33,.33-.08,.41,0,.25,.33-.33,.5-.41,.66-.41,.91v1.32c0,.08-.08,.17-.25,.17-.25,0-.25,.08-.17,.33,.08,.17,.08,.33-.08,.5-.17,.17-.17,.33-.08,.58,.08,.25,.08,.5,0,.66-.17,.17-.17,.25,0,.41,.25,.25,.33,.25,.99-.17,1.24-.66,2.15-1.16,2.48-1.24,.17,0,.33-.08,.33-.17s.25-.25,.5-.33c.25-.08,.75-.33,1.08-.5,.58-.33,2.15-.75,2.32-.66,.08,0,.17,.17,.25,.33,.08,.25,0,.41-.5,.91-.33,.33-.66,.58-.75,.58s-.33,.17-.5,.33c-.17,.17-.41,.33-.5,.33s-.41,.33-.75,.66c-.33,.33-.66,.66-.75,.66s-.25,.08-.33,.25c-.08,.17-.58,.5-1.08,.75-.5,.25-1.08,.58-1.24,.75-.17,.17-.5,.41-.75,.58-.41,.25-1.16,1.24-1.08,1.49,0,.08-.17,.5-.41,.91-.5,.91-.58,1.57-.17,1.41,.33-.17,.41,.08,.17,.41-.08,.17-.08,.33,0,.33s.08,.17,0,.41c-.08,.25-.17,.58-.17,.75s-.08,.41-.17,.58c-.17,.17-.17,.25,0,.25q.17,.08,0,.17c-.08,.08-.17,.25-.17,.41,.08,.33-.08,1.08-.25,1.08s-.08,.5,.08,.75c.08,.08,.08,.25,0,.41-.17,.33-.17,.66,.08,.99,.08,.17,.08,.25,0,.25s-.08,.08,0,.17c.08,.17,0,.25-.17,.25q-.25,.08,0,.5c.33,.5,.25,.83-.08,.58-.17-.08-.25-.25-.25-.33s0-.08-.08,0c-.25,.17-.17,.66,.17,.91,.25,.17,.25,.25,.08,.33q-.17,.08,0,.08c.25,0,.17,.83-.08,.91-.17,0-.17,.17-.08,.41,.08,.17,.08,.41,0,.5s-.17,.25-.17,.33,.08,.08,.17-.08q.08-.17,.17,.08c.08,.5-.17,1.24-.58,1.9-.17,.33-.41,.83-.5,1.08q-.17,.41-.58,.25c-.25-.08-.41-.25-.5-.5,0-.25-.25-.99-.5-1.66-.25-.75-.41-1.32-.33-1.49,.08-.17,.08-.33,0-.41-.08-.08-.17-.41-.25-.75-.08-.58-.08-.66,.17-.66,.33,.08,.33-.08,0-.66-.08-.25-.17-.25-.17-.08s-.08,.33-.17,.33c-.25,.08-.25-.25,0-.66,.17-.25,.17-.58,.08-1.49-.08-.66-.08-1.33,0-1.66,.25-.66,0-1.74-.41-1.74-.17,0-.25-.08-.17-.25,0-.17,0-.74-.08-1.32q-.08-1.08-.41-.99c-.17,0-.41,.17-.5,.33-.08,.17-.25,.25-.41,.25s-.33,.08-.33,.17-.17,.17-.41,.25c-.41,.08-.75,.33-1.41,.91-.17,.17-.5,.33-.66,.33s-.33,.08-.33,.17-.17,.17-.33,.17c-.33,0-.41,.08-.41,.41,0,.41-.99,1.32-1.57,1.41-.17,0-.33,.08-.33,.17s-.17,.17-.33,.17-.33,.08-.41,.25c-.08,.25-.25,.33-.58,.33-.25,0-.58,0-.66-.08-.08-.08-.25,0-.33,.17-.08,.17-.33,.33-.5,.33s-.66,.33-1.08,.75c-.58,.58-.75,.75-.58,.91,.17,.08,.17,.17,.08,.17s-.33,.33-.5,.66c-.17,.33-.33,.66-.41,.66s-.25,.33-.41,.66c-.17,.33-.33,.58-.33,.58-.17-.08-.58,.58-.5,.91,0,.25-.17,.58-.58,.99-.33,.33-.58,.66-.58,.75s-.33,.5-.75,.83-.75,.75-.75,.83-.08,.17-.25,.17-.41,.17-.58,.41c-.17,.25-.5,.5-.75,.58-.25,.08-.41,.08-.33,0,.08-.17-.08-.25-1.16-.99-.41-.33-.83-.58-.91-.58s-.41-.17-.66-.33c-.25-.17-.58-.33-.75-.33-.33-.08-.41-.25-.17-.58,.08-.08,.17-.33,.17-.5s.17-.41,.41-.58c.25-.17,.41-.33,.41-.41s.25-.58,.66-1.16c.41-.58,.75-1.16,.75-1.24s0-.17,.08-.17,.25-.25,.41-.58,.41-.83,.58-1.08c.33-.41,.33-.5,.08-.66-.25-.17-.25-.25-.08-.66,.08-.33,.08-.66,0-.91-.17-.33-.17-.41,0-.41,.08,0,.25-.17,.33-.33,.08-.17,.33-.33,.58-.33,.33,0,.5-.17,.83-.83,.25-.41,.5-1.08,.58-1.41,.17-.66,.17-.58,2.32-5.46,1.9-4.31,2.73-6.54,2.65-6.95,0-.08,.08-.33,.25-.5,.17-.17,.25-.41,.25-.5s.17-.25,.33-.41c.17-.17,.33-.33,.33-.41s.08-.17,.25-.25c.17-.08,.33-.33,.41-.58,.08-.25,.41-.99,.75-1.66,.33-.66,.58-1.24,.58-1.33s.08-.25,.25-.33c.17-.08,.33-.33,.33-.5,0-.25,.17-.5,.41-.66,.5-.33,1.16-1.41,2.4-3.89,.5-.99,1.08-2.15,1.32-2.57,.33-.5,.58-1.08,.66-1.74,.08-.58,.25-1.08,.33-1.08s.17-.17,.17-.41,.17-.58,.33-.83c.25-.33,.25-.41,.08-.58-.25-.25-.17-1.08,.17-1.24,.08-.08,.17-.33,.17-.58q-.08-.33,.41-.33t1.41-.99c.25-.25,.5-.5,.58-.5l.08,.25Zm-2.07,15.81c-.08,0-.17,.17-.17,.5,0,.25-.08,.5-.25,.58s-.33,.33-.41,.58c-.08,.25-.25,.5-.33,.5s-.17,.17-.17,.33-.17,.41-.41,.58c-.5,.41-.75,.75-.75,.91,0,.08-.08,.25-.25,.41-.17,.17-.25,.5-.25,.75,.08,1.08,0,1.57-.25,1.82-.17,.17-.25,.41-.25,.58s0,.33-.08,.41c-.08,.08-.08,.25,0,.33,.17,.25,0,.41-.5,.75-.25,.17-.41,.33-.33,.41,.08,.08,0,.25-.17,.33s-.33,.33-.33,.5-.17,.41-.33,.5c-.17,.08-.25,.25-.25,.33s-.08,.25-.17,.33-.17,.41-.17,.66-.08,.58-.17,.75c-.33,.41-1.24,2.4-1.24,2.65,0,.08,.08,.17,.17,.17s1.24-.5,2.65-1.08,2.81-1.16,3.15-1.32c1.57-.66,1.9-.83,1.99-1.08,.08-.33,0-3.06-.17-4.39-.08-.5-.17-1.16-.17-1.49s-.08-.75-.17-.99c-.08-.41,0-.99,.33-1.57,.08-.17,.17-.66,.17-1.08s.08-.91,.17-1.08c.17-.33,0-.83-.17-.66-.08,.08-.25-.08-.33-.33-.08-.25-.17-.41-.25-.41l-.17-.17Zm-5.63-2.73c.17,0,.08,.41-.17,.91-.25,.5-.33,.25-.08-.33,.17-.25,.33-.5,.41-.5l-.17-.08Zm.5-.66c.08,0,.08,.08,.08,.17-.08,.25-.17,.33-.17,.08,0-.08,.08-.17,.17-.25h-.08Zm.33-.83c.08,0,.08,.17,0,.33s-.17,.25-.25,.25-.08-.17,0-.33c0-.08,.08-.17,.17-.17l.08-.08Zm1.74,13.99c.08,0,.17,0,.17,.08,.08,.08,0,.33-.17,.5-.17,.17-.41,.5-.58,.66s-.33,.33-.41,.33c-.17-.08-.25-.66-.08-.75,.5-.17,.83-.33,.99-.66,.08-.17,.17-.25,.25-.25l-.17,.08Zm.66-1.24c.08,0,.08,.08,.08,.33,0,.17-.17,.33-.33,.33-.41,.08-.41-.17-.08-.5,.17-.17,.25-.25,.33-.25v.08Zm.25-1.24c.17,.08,.17,.17,.08,.33s-.17,.17-.25-.08c0-.17,0-.25,.08-.25h.08Zm.5-.5c-.25,.33-.33,.17-.17-.25,0-.08,.08-.17,.17-.17,.08,.08,.08,.25,0,.41Zm2.24-5.55c.17,.17,.08,.41-.25,.66-.33,.25-.33,.08-.08-.41,.08-.17,.17-.25,.25-.25h.08Z"/>
      <path class="cls-1" d="M73.77,57.67c.41-1.49,.99-4.39,1.41-6.95,.25-1.74,.5-2.73,.91-3.64,.58-1.24,1.57-5.22,1.74-6.79,.08-.91,.25-1.99,.41-2.4,.17-.41,.33-1.24,.33-1.82s.17-1.16,.33-1.24c.17-.08,.33-.66,.41-1.24,.08-.58,.41-1.74,.75-2.57,.33-.83,.66-1.82,.66-2.15s.17-.99,.33-1.41c.17-.41,.33-.91,.33-1.08s.5-1.49,.99-2.9c.99-2.73,1.24-4.22,.75-4.55-.17-.08,0-.41,.41-.83,.91-.91,1.74-1.32,2.73-1.32,.5,0,.99-.08,1.08-.25,.33-.5,3.23,.17,3.64,.83,.25,.33,.58,.58,.75,.58s.5,.25,.75,.5c.33,.41,.41,.99,.33,2.73-.08,2.57-.41,4.31-.75,4.55-.17,.08-.25,.41-.25,.66s-.41,1.32-.91,2.32c-.5,.99-1.08,2.48-1.33,3.31-.25,.83-.58,1.57-.75,1.74-.17,.17-.25,.58-.25,.91s-.17,.75-.33,.91c-.17,.17-.33,1.08-.33,1.99s-.08,1.74-.17,1.82c-.25,.25-1.08,1.66-1.9,3.31-.41,.83-.83,1.49-.99,1.49-.33,0-2.73,4.8-2.73,5.46,0,.17-.17,.5-.33,.75-.75,1.32-1.24,2.57-1.08,2.9,.08,.17-.25,.83-.75,1.49-.5,.66-.91,1.41-.91,1.57s-.33,.66-.66,1.08-.91,1.16-1.33,1.66c-.41,.5-.91,.91-1.08,.91s-.58,.25-.91,.58c-.33,.33-.83,.58-1.16,.5-.75-.08-.83-1.16-.25-3.15l.08-.25Z"/>
      <path class="cls-1" d="M131.4,20.5c-.41,.66-1.33,1.24-1.82,1.16-.25,0-.5,.08-.5,.25s-.66,.58-1.49,.91c-.83,.33-1.57,.75-1.66,.91-.17,.41-1.24,.83-1.9,.75-.25,0-.75,.08-1.16,.25-.75,.25-3.56,.33-3.23,.08,.25-.17,1.08-.5,2.24-.91,.5-.17,1.08-.41,1.24-.58,.17-.17,.5-.25,.66-.25s.33-.08,.33-.25c0-.33,.17-.33-2.15,0-1.08,.17-2.24,.25-2.57,.25s-.91,.25-1.24,.58c-.33,.33-.75,.5-.91,.41-.33-.25-1.16,0-1.41,.41-.08,.17-.08,.75,0,1.24,.17,.66,.08,1.08-.41,2.15-.33,.75-.75,1.49-.91,1.66-.17,.17-.41,.91-.58,1.66-.58,2.65-1.49,5.3-2.07,6.13-.17,.25-.33,.91-.41,1.41-.08,.66-.33,1.16-.66,1.41-.25,.25-.58,.91-.75,1.49s-.5,1.24-.75,1.49c-.58,.66-1.66,2.81-1.74,3.48-.08,.5,0,.58,.58,.5,.99-.08,1.57-.33,1.66-.75,0-.17,.17-.41,.33-.5,.25-.17-.17,1.32-.41,1.49-.08,.08-.25,.75-.41,1.49-.17,.75-.41,1.49-.66,1.74s-.5,.75-.58,1.08c-.5,2.32-.91,3.64-1.08,3.64-.08,0-.17,.17-.17,.33s.17,.33,.41,.33c.33,0,.33,.17,.17,.66-.17,.33-.41,.99-.58,1.49-.17,.66-.66,1.24-1.82,2.07-.91,.75-1.66,1.16-1.74,.99-.08-.17-.58-.25-1.08-.25-.83,0-.99-.08-1.41-.83-.33-.58-.58-.83-.91-.75-.66,.17-2.48-1.16-3.39-2.4-.75-1.08-.75-1.16-.41-1.9,.17-.41,.5-.91,.75-1.08,.33-.33,.33-.5,.17-.99-.17-.5-.08-.58,.66-.99,.91-.58,1.24-1.82,.58-2.15-.5-.25-.41-.66,.25-1.32,.66-.66,.83-1.41,.33-1.49-.17,0-.33-.17-.33-.33,.08-.99,1.24-4.06,1.66-4.55,.66-.75,1.16-1.41,1.41-1.82,.08-.17,.41-.58,.66-.83,.75-.75,.75-1.24,0-1.16-.5,.08-.58,0-.5-.5,0-.33,.17-.66,.33-.75s.33-.58,.41-1.08c.08-.5,.33-1.08,.58-1.24,.25-.17,.5-.58,.5-.91s.08-.58,.17-.58c.33,0,2.4-3.97,3.31-6.54,.25-.66,0-1.16-.33-.75-.08,.17-.5,.25-.91,.17-.41-.08-1.57,.08-2.57,.33-1.9,.41-2.81,.41-2.9,0,0-.17-.5-.41-.99-.58-.5-.17-1.66-.83-2.48-1.49-.83-.66-1.9-1.41-2.4-1.74-.5-.33-.91-.66-.91-.75s-.25-.41-.5-.66q-.5-.5,0-1.32c.5-.75,.58-.83,1.57-.75,.58,.08,1.66,0,2.4-.17,3.48-.75,4.72-.99,6.29-1.08,.91-.08,1.82-.17,2.07-.25,.25-.08,.75-.08,1.16-.08s.99-.08,1.24-.17c.25-.08,.99-.33,1.66-.5,.66-.17,1.32-.41,1.49-.58,.25-.25,.75-.25,2.07,0,1.49,.25,2.07,.25,3.97-.17,1.24-.25,2.65-.58,3.15-.75,1.41-.58,3.4-.75,5.71-.5,1.9,.17,2.07,.25,2.82,.99,.41,.41,.91,.99,.99,1.32,.08,.33,.58,.91,1.08,1.32,.91,.83,.99,1.08,.5,1.82l.25,.08Z"/>
      <path class="cls-1" d="M151.6,49.39c-.75,.66-3.56,2.15-4.06,2.15-.25,0-.58,.25-.66,.5-.08,.25-.75,.66-1.41,.91-.66,.25-1.33,.66-1.41,.99-.08,.33-1.66,1.33-3.64,2.32-1.9,.99-3.56,1.9-3.64,2.07-.08,.17-.99,.66-1.99,1.16-.99,.5-2.07,1.08-2.4,1.24-.91,.5-3.23,.33-5.05-.33-4.06-1.49-5.3-2.48-6.29-4.97-.66-1.74-.66-2.32,0-3.06,.25-.33,.58-.99,.66-1.49,.25-1.74,1.16-4.55,1.99-6.21,.99-2.15,3.64-9.11,3.81-9.94,.08-.33,.33-.99,.58-1.49,.66-1.16,1.32-3.64,1.32-4.8,0-.5,.41-1.82,.91-2.98,.5-1.16,.91-2.32,.91-2.57s.25-.83,.58-1.24c.41-.58,.58-1.41,.58-3.39v-2.65l2.32-.25c1.24-.17,2.57-.33,2.9-.41,.83-.08,1.74,.33,3.06,1.41,1.33,1.08,1.74,2.24,1.41,3.64-.17,.66-.5,2.24-.75,3.48-.25,1.24-.58,2.4-.75,2.57-.17,.17-.5,.91-.75,1.66-.25,.75-.58,1.66-.75,1.99-.17,.33-.58,1.66-.91,2.9-.58,2.32-.83,3.23-1.99,6.29-.33,.91-.58,2.07-.58,2.57s-.33,1.24-.66,1.74c-.33,.5-.66,1.41-.66,2.07s-.33,1.57-.83,2.24c-.75,1.08-1.66,3.39-1.9,4.88-.08,.58,.08,.66,1.08,.58,1.08-.08,4.55-.83,7.95-1.74,.83-.25,2.65-.66,4.14-.99s3.56-.83,4.64-1.16,2.07-.58,2.24-.58c.41,0,.33,.75-.17,1.16l.17-.25Z"/>
      <path class="cls-1" d="M150.94,57.67c.41-1.49,.99-4.39,1.41-6.95,.25-1.74,.5-2.73,.91-3.64,.58-1.24,1.57-5.22,1.74-6.79,.08-.91,.25-1.99,.41-2.4,.17-.41,.33-1.24,.33-1.82s.17-1.16,.33-1.24c.17-.08,.33-.66,.41-1.24,.08-.58,.41-1.74,.75-2.57,.33-.83,.66-1.82,.66-2.15s.17-.99,.33-1.41c.17-.41,.33-.91,.33-1.08s.5-1.49,.99-2.9c.99-2.73,1.24-4.22,.75-4.55-.17-.08,0-.41,.41-.83,.91-.91,1.74-1.32,2.73-1.32,.5,0,.99-.08,1.08-.25,.33-.5,3.23,.17,3.64,.83,.25,.33,.58,.58,.75,.58s.5,.25,.75,.5c.33,.41,.41,.99,.33,2.73-.08,2.57-.41,4.31-.75,4.55-.17,.08-.25,.41-.25,.66s-.41,1.32-.91,2.32-1.08,2.48-1.33,3.31c-.25,.83-.58,1.57-.75,1.74-.17,.17-.25,.58-.25,.91s-.17,.75-.33,.91c-.17,.17-.33,1.08-.33,1.99s-.08,1.74-.17,1.82c-.25,.25-1.08,1.66-1.9,3.31-.41,.83-.83,1.49-.99,1.49-.33,0-2.73,4.8-2.73,5.46,0,.17-.17,.5-.33,.75-.75,1.32-1.24,2.57-1.08,2.9,.08,.17-.25,.83-.75,1.49-.5,.66-.91,1.41-.91,1.57s-.33,.66-.66,1.08-.91,1.16-1.33,1.66c-.41,.5-.91,.91-1.08,.91s-.58,.25-.91,.58c-.33,.33-.83,.58-1.16,.5-.75-.08-.83-1.16-.25-3.15l.08-.25Z"/>
      <path class="cls-1" d="M207.9,1.29c-.17,.33-.41,1.08-.58,1.57-.17,.5-.41,1.16-.58,1.49-.33,.66-.17,1.24,.33,1.24,.25,0,.33,.17,.33,.66,0,.41-.08,.83-.17,.91-.08,.08-.17,.41-.17,.75s-.08,.66-.17,.75c-.41,.25-.33,1.49,.17,2.48,.25,.58,.41,1.16,.33,1.32s-.25,.66-.41,1.16c-.17,.5-.41,1.24-.66,1.66-.25,.41-.33,.83-.25,.91,.17,.17-.08,.75-.58,1.41-.25,.33-.66,2.98-.75,4.39,0,.33-.17,.91-.33,1.24-.25,.41-.33,.75-.25,1.24,.08,.5,0,.83-.33,1.24-.25,.33-.33,.75-.25,.91,.17,.33,.08,.75-.66,2.32-.08,.17-.17,.66-.17,1.08,0,.66-.33,1.9-.66,2.4-.08,.17-.08,.33,0,.41,.17,.08,.17,.25,0,.5-.08,.25-.17,.83-.17,1.32s-.08,.99-.17,1.08c-.08,.08-.17,.33-.17,.58s-.33,1.16-.75,1.99c-.41,.83-.75,1.74-.75,1.99,0,.66-.75,3.31-.99,3.31-.33,0-.41-.66-.17-1.41,.17-.41,.25-1.08,.25-1.49s.08-.83,.17-.99c.17-.17,.17-.33-.08-.5-.25-.25-.33-.25-.33,0,0,.17-.08,.41-.25,.5-.17,.08-.25,.66-.25,1.66s-.08,1.66-.25,1.74c-.33,.25-.58,2.15-.25,2.15,.25,0,.41,.99,.41,2.65,0,.75-.17,1.49-.5,2.32-.25,.66-.5,1.74-.5,2.4s-.08,1.41-.17,1.66c-.17,.25-.17,.41,0,.5,.17,.08,.17,.33,.08,.66-.17,.58-.08,.99,.33,1.41,.17,.25,.25,.58,.17,.99s0,.99,.25,1.74c.25,.66,.41,1.33,.41,1.49-.08,.41-.99,.66-1.9,.5-.41-.08-1.08-.08-1.49,0-.41,.08-.99,.17-1.32,.17h-1.08c-.33,0-.58-.17-.66-.5-.08-.25-.41-.58-.75-.75-.33-.17-.75-.5-.91-.75-.25-.33-.58-.5-.91-.5-.75,0-.99-.17-1.66-.99-.33-.41-.5-.91-.5-1.41,0-.83-.58-2.57-1.08-3.23-.17-.25-.41-.75-.5-1.16s-.25-.83-.33-.99c-.08-.17-.17-.33-.08-.41s-.08-.41-.33-.75-.5-1.08-.58-1.66c-.17-1.16-.25-3.39-.08-3.64,.08-.08-.08-.17-.33-.17-.33,0-.41-.17-.41-.75,0-.66-.08-1.16-.5-3.97-.08-.66-.33-3.06-.5-5.38-.33-4.31-.66-6.46-1.08-6.87-.17-.08-.25-.5-.25-.91s-.08-.66-.17-.58c-.08,.08-.17,.41-.17,.75,0,.91-.5,3.81-.83,4.64-.17,.41-.33,1.16-.33,1.66,0,1.08-.33,3.31-.58,3.89-.08,.17-.17,.5-.17,.75s-.08,.5-.17,.58c-.08,.08-.25,.75-.33,1.49-.08,1.32-.58,3.81-.99,4.97-.08,.33-.17,1.16-.17,1.9s-.08,1.41-.17,1.49c-.08,.08-.17,.33-.17,.58s-.08,.58-.17,.75c-.5,.99-1.49,3.97-1.41,4.14,.25,.33-.33,1.74-.83,2.24-.5,.5-.91,1.16-1.24,2.15-.08,.33-.33,.58-.5,.58s-.58,.25-.83,.5-.75,.58-1.08,.66-.58,.25-.58,.33-.25,.33-.58,.5c-.66,.33-.99,.25-1.9-.5-.17-.17-.41-.25-.5-.17-.08,.08-.66-.08-1.24-.33-.91-.41-1.08-.58-1.33-1.41-.33-.99-.17-1.57,.91-3.56,1.08-1.9,2.48-5.22,2.48-5.88,0-.41,.17-.99,.33-1.32,.17-.33,.33-1.08,.33-1.66s.08-1.16,.17-1.32,.17-.5,.17-.83c0-.5,.66-2.65,1.74-5.71,.25-.66,.41-1.41,.41-1.74s.25-1.24,.58-2.07c.66-1.74,.75-2.32,.25-2.07-.25,.08-.33,0-.25-.33,.08-.41,1.49-4.22,1.99-5.55,.17-.33,.33-.99,.41-1.41s.41-1.41,.75-2.24,.58-1.66,.58-1.82,.5-1.57,1.08-3.15c.58-1.57,1.08-2.98,1.08-3.15,0-.75,.58-1.49,1.41-1.74,1.49-.5,2.4-.41,3.23,.33,.75,.66,.91,1.16,.83,2.24,0,.66,.75,2.32,1.49,3.23,.75,.83,.99,1.32,1.74,3.56,.17,.5,.41,.99,.5,1.08,.08,.08,.17,.41,.17,.66s.33,1.32,.66,2.32c.33,.99,.75,2.32,.83,2.9,.08,.58,.33,1.32,.5,1.74s.41,1.32,.5,2.07c.17,1.74,.5,3.48,.99,5.38,.66,2.48,.91,3.48,1.08,4.8,.08,.66,.25,1.74,.41,2.32l.33,1.08,.41-.66c.66-1.24,1.24-3.64,1.16-4.97,0-.25,.25-.83,.5-1.24,.41-.66,.91-2.65,.83-3.23-.08-.5,.08-.91,.41-1.24,.33-.25,.41-.58,.41-1.32,0-.58,.08-1.08,.17-1.16s.17-.33,.17-.58,.17-.66,.33-.99c.5-.75,.66-1.49,.41-1.66-.08-.08-.17-.25-.17-.41,0-.25,.08-.25,.33-.08,.41,.33,.58-.17,.17-.58-.41-.33-.33-1.08,.17-1.9,.17-.25,.25-.58,.25-.75,0-.25,.99-3.89,1.24-4.64,.08-.17,.17-.66,.17-1.08s.08-.83,.17-.91c.5-.41,1.49-3.48,1.49-4.64,0-.58,.08-1.16,.25-1.32,.17-.17,.25-.33,.25-.41s.25-.58,.58-1.08c.33-.5,.58-1.16,.58-1.49s.5-1.82,1.08-3.23c1.66-3.97,1.66-4.06,1.66-4.55,.08-1.08,2.32-3.06,2.73-2.4q.25,.33-.08,1.08l-.25,.08Z"/>
      <path class="cls-1" d="M234.57,1.87c.91,0,1.66,.17,2.9,.41,.66,.08,4.14,2.48,4.22,2.9,0,.08,.33,.41,.66,.66,1.49,1.16,3.06,2.65,3.48,3.39,.25,.41,.91,1.49,1.49,2.32,1.08,1.57,1.33,2.4,.99,3.4-.08,.33-.08,1.08,0,1.66,.08,.91-1.24,.91-1.99,1.82,0,0-3.81-1.66-6.54-4.47l-3.39-.33-1.32,.33c-.75,.17-1.66,.5-2.07,.75s-.99,.5-1.32,.5-1.41,.58-2.32,1.24c-1.66,1.32-4.31,4.22-4.06,4.55,.08,.08-.08,.41-.41,.66s-.58,.66-.58,.83-.17,.58-.41,.83c-.91,1.24-1.99,2.82-2.4,3.56-.25,.41-.75,1.24-1.08,1.82-1.08,1.66-2.07,3.31-2.07,3.48s-1.66,3.15-1.82,3.15c-.41,.08-.17-.75,.5-1.66,.41-.58,.83-1.32,.91-1.66,.08-.33,.33-.75,.58-.91,.41-.25,.66-1.57,.33-1.49-.08,0-.33,.41-.58,.91-.25,.5-.66,1.41-.99,1.99-.75,1.49-1.9,4.22-1.9,4.47,.08,.41,.5,.17,.58-.33s.75-.99,1.08-.75c.08,.08-.17,.99-.5,1.99-.33,.99-.66,1.9-.75,2.07-.08,.17,.08,.08,.33-.17,.25-.25,.5-.5,.66-.5s.25-.17,.25-.41,.08-.41,.25-.41c.33-.08,.08,.99-.33,1.41-.17,.17-.25,.5-.17,.66s.08,.58,0,.91c-.5,1.9-.83,2.73-1.32,3.39-.33,.5-.5,.99-.41,1.24,.08,.25,0,.91-.17,1.49-.17,.58-.25,1.16-.17,1.24,.08,.08,0,.99-.17,1.99-.17,.99-.25,2.15-.17,2.57,.08,.41,0,.99-.08,1.24-.17,.5,.17,.83,1.41,1.32,1.32,.5,8.61-.91,11.26-2.24,.83-.41,1.66-.75,1.9-.75s.75-.25,1.16-.5c.41-.25,.91-.5,1.16-.5s.75-.25,1.16-.58,1.24-.66,1.82-.83c.58-.17,1.24-.5,1.49-.75,.25-.25,1.08-.66,1.9-.99,.83-.33,1.74-.66,1.99-.75,1.08-.5-.5,.99-1.74,1.66-.66,.33-1.57,.91-1.99,1.33s-.91,.66-1.16,.58c-.25-.08-.41,0-.41,.17,.08,.5-.66,1.24-2.24,2.24-1.74,1.08-4.31,2.4-4.88,2.48-.25,0-.83,.41-1.33,.91-.5,.5-1.08,.91-1.24,.91s-1.24,.58-2.4,1.32c-1.9,1.16-2.24,1.24-3.64,1.33-.91,0-1.74,.17-1.82,.33-.41,.5-2.07,0-3.31-.99-.66-.5-1.16-.99-1.16-1.08s-.83-.41-1.82-.66c-1.99-.58-3.64-1.74-3.73-2.73,0-.33-.17-.58-.41-.58s-.41-.08-.41-.25-.08-.66-.17-1.08c-.08-.41-.33-.91-.5-1.08-.25-.25-.25-.41,0-.75,.17-.33,.17-.5-.08-.75-.17-.17-.5-1.08-.66-2.07q-.33-1.82,.41-2.65c.66-.83,.66-.91,.17-1.32-.83-.75-.91-3.06-.08-3.23,.25-.08,.25-.17,0-.25-.17-.08-.33-.25-.33-.41,0-.33,1.41-2.15,2.4-3.06,.5-.5,.25-.75-.5-.5-.25,.08-.5,.41-.58,.75q-.08,.5-.25,.08c-.08-.25-.08-.58,.08-.75,.17-.17,.25-.5,.25-.75s.17-.58,.41-.66c.25-.17,.33-.41,.17-.91-.17-.5,0-1.24,.58-2.73,.99-2.73,1.33-3.23,2.82-4.22,.75-.5,1.41-1.16,1.57-1.66,.17-.41,.5-.99,.75-1.32,.25-.33,.5-.66,.5-.83-.08-.33-.83,.25-1.66,1.24-.66,.83-1.24,.99-1.33,.41,0-.33,1.49-2.24,2.24-2.81,.99-.83,1.24-1.24,.91-1.57-.25-.25-.17-.41,.41-.83,.41-.25,.66-.58,.58-.75v-.25c1.41-1.66,2.9-3.23,4.47-4.72s3.81-2.57,4.8-3.56c.75-.75,1.66-1.49,1.82-1.57-.25,0-1.32-.08-1.41-.08-.41,.17-.99,.66-1.33,.91-.41,.25-2.9,2.48-3.23,2.15-.08-.08,.25-.41,.66-.83,.66-.25,1.33-.91,1.57-1.49,.66-.66,3.48-3.23,3.15-3.56-.5-.58-.17,.91-.5-.41,.75-.66,1.49-1.24,2.07-1.49,1.41-.58,2.07-1.16,1.99-1.74,0-.25,.17-.58,.41-.66,3.23-.99,4.88-1.41,6.13-1.49h.75l-.75,.08Zm-16.81,35.6c0,.17-.08,.33-.25,.33s-.25-.08-.17-.25c.08-.17,.17-.33,.25-.33s.17,.08,.17,.25Zm2.73-6.62v.08c0,.17-.17,.41-.33,.58-.17,.17-.33,.25-.33,.08s.17-.41,.33-.58c.08-.08,.17-.17,.25-.17h.08Zm.83-1.41s-.08,.17-.25,.5c-.33,.5-.66,.66-.66,.33,0-.08,.17-.33,.41-.5,.25-.17,.41-.25,.5-.25v-.08Zm.75-1.66q.41,.08,.08,.41c-.25,.25-.5,.33-.66,.25-.33-.25-.08-.66,.33-.66h.25Z"/>
      <path class="cls-1" d="M256.26,14.95c3.81-.41,4.55-1.82,7.87-1.32,.41,.08,.99,.17,1.24,.17s1.08,.33,1.82,.75,1.82,1.08,2.48,1.41c.66,.33,1.41,.83,1.74,1.16s.66,.58,.83,.58,.5,.25,.75,.58c.25,.33,.83,.99,1.24,1.49,.41,.5,.83,1.16,.91,1.49,.08,.33,.33,.91,.5,1.32,.41,.91,.75,5.13,.41,5.3-.17,.08-.25,.25-.25,.41,0,.5-1.08,3.15-1.41,3.48-.17,.17-.66,.99-1.16,1.9-1.08,2.07-1.9,3.31-2.24,3.31-.17,0-.5,.25-.66,.5-.25,.33-.66,.5-1.24,.5s-.91,.17-.99,.41c-.17,.5-1.82,1.32-2.07,1.08-.17-.08-.17-.33,0-.58,.33-.41,.17-.41-.58,.08-.33,.17-.83,.33-1.08,.33s-.58,.17-.75,.33c-.17,.17-.5,.33-.75,.33-.33,0-.66,.25-.83,.58-.17,.33-.5,.75-.75,.91-.25,.17-.58,.58-.75,.91-.33,.75-1.49,1.24-3.15,1.32-1.49,.08-1.82,.25-1.41,.66,.17,.17,.33,.5,.33,.75s.17,.5,.41,.58c.25,.08,.66,.66,.99,1.24,.99,1.9,2.24,2.81,4.88,3.56s3.64,.83,7.7,.5c2.15-.17,4.39-.41,4.89-.58,3.31-.91,3.97-1.08,4.22-.99,.58,.17,.25,.66-.91,1.33-.66,.33-1.16,.75-1.08,.83,.08,.17-2.48,1.66-2.9,1.66-.08,0-.25,.17-.41,.33-.17,.17-.83,.5-1.49,.66-.66,.17-1.41,.5-1.66,.66-.25,.17-.99,.5-1.57,.66-1.41,.41-2.15,.91-2.4,1.66-.17,.58-1.08,.83-1.41,.41-.08-.08-.41-.17-.66-.17s-.58-.08-.66-.17-.33-.17-.58-.17c-.33,0-1.66-.83-3.73-2.32-.25-.17-.5-.33-.58-.33s-.66-.33-1.24-.75c-.58-.41-1.16-.75-1.24-.75-.41,0-3.73-3.23-4.14-4.06-.5-.99-.83-1.24-1.16-.91-.17,.17-.33,.17-.58,0-.25-.17-.33-.17-.33,0s-.08,.25-.25,.25c-.33,0-1.66,1.41-1.66,1.66,0,.08,.25,.17,.5,.17,.5,0-.99,1.99-1.41,2.4-2.32,3.64-.75,3.56-4.06,7.7,0,.17-.5,.5-1.16,.75-1.08,.41-1.16,.41-1.74,.08-.33-.17-.66-.58-.75-.91s-.25-.83-.33-1.16c-.17-.41-.08-.83,.25-1.49,.5-1.16,.83-2.24,.99-3.31,.17-1.08,.58-2.32,.91-2.65,.17-.17,.25-.5,.25-.66s.08-.5,.25-.75c.17-.25,.41-.83,.5-1.33,.17-.5,.58-1.66,.99-2.57,.41-.91,.75-1.82,.75-1.99s.25-.66,.5-1.16c.25-.5,.5-.99,.5-1.16s.33-.91,.75-1.66c.41-.75,.75-1.74,.75-2.24s.33-1.74,.75-2.73c.41-.99,.75-1.9,.75-1.99,0-.25,2.15-5.22,2.32-5.38,.17-.08,.83-1.74,.83-1.9,0-.08-.17-.08-.33-.08-.5,0-.41-.25,.33-.91,.41-.33,.66-.66,.58-.75-.08-.08-1.33,.91-3.31,2.65-.17,.08-.66,.41-1.16,.66-.5,.25-1.41,1.16-2.07,1.99-.66,.83-1.41,1.66-1.66,1.9-1.49,1.57-1.66,1.82-1.66,2.81,0,.5-.08,1.08-.17,1.24s-.08,.41,0,.58c.08,.25-.91,3.06-1.16,3.06-.17,0-1.57-.5-1.74-.66-1.08-.75-1.57-1.24-2.32-2.57-.5-.83-.91-1.66-.91-1.82s.33-.66,.75-1.08,.75-.99,.83-1.24c.08-.25,.33-.5,.58-.58,.25-.08,.41-.25,.41-.33,0-.33,1.9-3.23,2.48-3.81,.33-.33,.58-.66,.58-.83,0-.33,1.33-1.74,1.66-1.74s.99-.58,2.32-1.99c.5-.5,1.24-1.24,1.66-1.57s.83-.75,.91-.91,.58-.75,1.08-1.24c.66-.75,.99-.91,1.41-.83,.33,.08,.58-.08,.91-.5,.25-.33,.66-.58,.83-.58s.5-.08,.66-.25c.83-.5,2.82-1.49,3.06-1.49l-.17-.17Zm7.87,2.73c-.25,0-.41,.08-.5,.17-.17,.17-.91,.5-1.66,.75-1.66,.58-1.74,.66-1.41,1.32,.25,.41,.25,.83,.08,1.82-.25,1.24-1.08,3.89-1.41,4.64-.08,.25-.17,.58-.17,.75s-.17,.75-.41,1.32c-.25,.58-.5,1.41-.58,1.82-.08,.41-.25,.91-.41,1.08-.17,.17-.33,.58-.41,.91s-.41,.99-.75,1.49c-.33,.5-.5,.99-.41,1.08,.75,.41,.33,2.65-.66,3.64-.33,.33-.41,.5-.25,.58,.25,.08,.25,.25,.08,.66-.17,.5-.17,.58,.25,.58s1.99-1.24,2.32-1.82c.08-.17,.5-.41,.91-.5,.99-.25,2.15-1.24,2.15-1.82,0-.25,.25-.5,.75-.66,.5-.17,.66-.33,.58-.66-.08-.41,1.49-2.15,1.99-2.15,.17,0,.25-.08,.25-.17s.58-.83,1.24-1.66c1.24-1.49,2.4-3.81,2.73-5.38,.17-.75,.08-1.41-.33-4.22-.33-1.99-1.41-3.06-3.31-3.39-.41-.08-.75-.08-.99-.08l.33-.08Z"/>
      <path class="cls-1" d="M298.99,15.95h.75c.58,.08,1.49,.08,2.07,0,1.57-.08,4.64,0,5.71,.17,1.08,.17,2.73,.17,2.82,.83,.08,.41-.33,.66-2.4,1.57-2.15,.91-2.65,1.24-3.15,1.99-.41,.58-.83,.83-1.41,.91-.41,.08-1.33,.33-1.99,.58-.66,.25-2.07,.66-3.15,.91-1.08,.25-2.07,.58-2.15,.75s-.58,.33-1.08,.41c-.58,.08-1.08,.33-1.32,.66-.25,.33-.33,.58-.25,.58s.08,.17-.08,.41c-.17,.25-.41,.83-.58,1.32-.25,.99-.66,2.15-1.33,3.56-.25,.5-.58,1.32-.75,1.82l-.25,.91,2.4-.5c2.81-.58,3.06-.66,5.13,0-.08,2.81-3.15,7.78-6.46,8.11,0,0-2.57,.75-3.23,.91-2.15,.5-3.31,4.72-3.97,5.88-.33,.58-.58,1.32-.58,1.66,.08,.33-.17,.83-.5,1.16-.75,.75-1.32,2.15-1.32,3.06,.91-.08,1.66-.08,1.9,0,.83,.17,6.87-.66,7.95-1.08,.41-.17,1.24-.33,1.82-.33,1.99-.08,6.38-1.49,7.45-2.4,.66-.5,.91-.75,1.16-.66,.17,.08,.33,.25,.66,.58,.41,.41,.75,1.08,.66,1.49-.17,.99-3.48,3.89-4.64,4.06-.99,.17-4.31,1.82-6.79,3.39-.83,.5-1.74,.91-1.99,.83-.25-.08-1.99,.41-3.89,.99s-3.64,1.08-3.89,.99c-.25-.08-1.16,0-1.99,.17-1.24,.17-2.82,0-4.31-.41-.25,.08-.58,.17-.91,.25-.83,.33-1.33,.41-1.66,.25-.33-.17-.5-.17-.66,0-.33,.41-1.74,0-1.99-.58-.33-.83-.41-2.4-.17-3.06,.17-.33,.66-.91,1.16-1.24,.91-2.65-.75-2.48,1.57-6.21,.91-1.9,1.08-2.48,.58-2.4-.25,0-.08-.75,.5-2.24,.5-1.24,.91-2.32,.91-2.4s.17-.33,.41-.66c.66-.99,3.39-7.53,3.39-7.53,.08-.58,.33-1.16,.58-1.24,.41-.17,1.16-2.15,1.08-2.81,0-.17,.5-1.16,1.08-2.24,.58-1.08,1.08-2.07,1.08-2.15-.66-1.9,1.08-7.12,3.64-9.19,.66-.08,1.99-.41,2.98-.75,.99-.33,3.15-.75,5.22-.99,1.57-.17,3.15-.33,4.14-.33v.25Z"/>
      <path class="cls-1" d="M321.01,14.12c.41-.08,1.57,.08,1.99,.25,.25,.08,.58,.17,.75,.17,.08,0,.17,.08,.17,.17,0,.17,.75,1.32,.99,1.66,.58,.66,.83,1.08,.83,1.57v3.31c0,.83,.08,1.99,.17,2.57,.17,1.24,.17,1.9,.08,2.4-.08,.17-.08,.75,0,1.24,.08,.91-.08,2.4-.41,2.98-.08,.17-.08,.25,.08,.33,.17,.08,.17,.17-.08,.41-.33,.33-.25,.75,.08,.58,.25-.17,.41,0,.25,.25-.08,.08-.08,.5,0,.83s.08,.66,0,.75c-.25,.17-.08,.41,.25,.33,.33-.08,.41,0,.25,.33-.33,.5-.41,.66-.41,.91v1.32c0,.08-.08,.17-.25,.17-.25,0-.25,.08-.17,.33,.08,.17,.08,.33-.08,.5-.17,.17-.17,.33-.08,.58,.08,.25,.08,.5,0,.66-.17,.17-.17,.25,0,.41,.25,.25,.33,.25,.99-.17,1.24-.66,2.15-1.16,2.48-1.24,.17,0,.33-.08,.33-.17s.25-.25,.5-.33c.25-.08,.75-.33,1.08-.5,.58-.33,2.15-.75,2.32-.66,.08,0,.17,.17,.25,.33,.08,.25,0,.41-.5,.91-.33,.33-.66,.58-.75,.58s-.33,.17-.5,.33c-.17,.17-.41,.33-.5,.33s-.41,.33-.75,.66c-.33,.33-.66,.66-.75,.66s-.25,.08-.33,.25c-.08,.17-.58,.5-1.08,.75-.5,.25-1.08,.58-1.24,.75-.17,.17-.5,.41-.75,.58-.41,.25-1.16,1.24-1.08,1.49,0,.08-.17,.5-.41,.91-.5,.91-.58,1.57-.17,1.41,.33-.17,.41,.08,.17,.41-.08,.17-.08,.33,0,.33s.08,.17,0,.41c-.08,.25-.17,.58-.17,.75s-.08,.41-.17,.58c-.17,.17-.17,.25,0,.25q.17,.08,0,.17c-.08,.08-.17,.25-.17,.41,.08,.33-.08,1.08-.25,1.08s-.08,.5,.08,.75c.08,.08,.08,.25,0,.41-.17,.33-.17,.66,.08,.99,.08,.17,.08,.25,0,.25s-.08,.08,0,.17c.08,.17,0,.25-.17,.25q-.25,.08,0,.5c.33,.5,.25,.83-.08,.58-.17-.08-.25-.25-.25-.33s0-.08-.08,0c-.25,.17-.17,.66,.17,.91,.25,.17,.25,.25,.08,.33q-.17,.08,0,.08c.25,0,.17,.83-.08,.91-.17,0-.17,.17-.08,.41,.08,.17,.08,.41,0,.5s-.17,.25-.17,.33,.08,.08,.17-.08q.08-.17,.17,.08c.08,.5-.17,1.24-.58,1.9-.17,.33-.41,.83-.5,1.08q-.17,.41-.58,.25c-.25-.08-.41-.25-.5-.5,0-.25-.25-.99-.5-1.66-.25-.75-.41-1.32-.33-1.49,.08-.17,.08-.33,0-.41-.08-.08-.17-.41-.25-.75-.08-.58-.08-.66,.17-.66,.33,.08,.33-.08,0-.66-.08-.25-.17-.25-.17-.08s-.08,.33-.17,.33c-.25,.08-.25-.25,0-.66,.17-.25,.17-.58,.08-1.49-.08-.66-.08-1.33,0-1.66,.25-.66,0-1.74-.41-1.74-.17,0-.25-.08-.17-.25,0-.17,0-.74-.08-1.32q-.08-1.08-.41-.99c-.17,0-.41,.17-.5,.33-.08,.17-.25,.25-.41,.25s-.33,.08-.33,.17-.17,.17-.41,.25c-.41,.08-.75,.33-1.41,.91-.17,.17-.5,.33-.66,.33s-.33,.08-.33,.17-.17,.17-.33,.17c-.33,0-.41,.08-.41,.41,0,.41-.99,1.32-1.57,1.41-.17,0-.33,.08-.33,.17s-.17,.17-.33,.17-.33,.08-.41,.25c-.08,.25-.25,.33-.58,.33-.25,0-.58,0-.66-.08-.08-.08-.25,0-.33,.17-.08,.17-.33,.33-.5,.33s-.66,.33-1.08,.75c-.58,.58-.75,.75-.58,.91,.17,.08,.17,.17,.08,.17s-.33,.33-.5,.66c-.17,.33-.33,.66-.41,.66s-.25,.33-.41,.66c-.17,.33-.33,.58-.33,.58-.17-.08-.58,.58-.5,.91,0,.25-.17,.58-.58,.99-.33,.33-.58,.66-.58,.75s-.33,.5-.75,.83-.75,.75-.75,.83-.08,.17-.25,.17-.41,.17-.58,.41c-.17,.25-.5,.5-.75,.58-.25,.08-.41,.08-.33,0,.08-.17-.08-.25-1.16-.99-.41-.33-.83-.58-.91-.58s-.41-.17-.66-.33c-.25-.17-.58-.33-.75-.33-.33-.08-.41-.25-.17-.58,.08-.08,.17-.33,.17-.5s.17-.41,.41-.58c.25-.17,.41-.33,.41-.41s.25-.58,.66-1.16c.41-.58,.75-1.16,.75-1.24s0-.17,.08-.17,.25-.25,.41-.58,.41-.83,.58-1.08c.33-.41,.33-.5,.08-.66-.25-.17-.25-.25-.08-.66,.08-.33,.08-.66,0-.91-.17-.33-.17-.41,0-.41,.08,0,.25-.17,.33-.33,.08-.17,.33-.33,.58-.33,.33,0,.5-.17,.83-.83,.25-.41,.5-1.08,.58-1.41,.17-.66,.17-.58,2.32-5.46,1.9-4.31,2.73-6.54,2.65-6.95,0-.08,.08-.33,.25-.5,.17-.17,.25-.41,.25-.5s.17-.25,.33-.41,.33-.33,.33-.41,.08-.17,.25-.25c.17-.08,.33-.33,.41-.58,.08-.25,.41-.99,.75-1.66,.33-.66,.58-1.24,.58-1.33s.08-.25,.25-.33c.17-.08,.33-.33,.33-.5,0-.25,.17-.5,.41-.66,.5-.33,1.16-1.41,2.4-3.89,.5-.99,1.08-2.15,1.32-2.57,.33-.5,.58-1.08,.66-1.74,.08-.58,.25-1.08,.33-1.08s.17-.17,.17-.41,.17-.58,.33-.83c.25-.33,.25-.41,.08-.58-.25-.25-.17-1.08,.17-1.24,.08-.08,.17-.33,.17-.58q-.08-.33,.41-.33t1.41-.99c.25-.25,.5-.5,.58-.5l.08,.25Zm-2.07,15.81c-.08,0-.17,.17-.17,.5,0,.25-.08,.5-.25,.58s-.33,.33-.41,.58c-.08,.25-.25,.5-.33,.5s-.17,.17-.17,.33-.17,.41-.41,.58c-.5,.41-.75,.75-.75,.91,0,.08-.08,.25-.25,.41-.17,.17-.25,.5-.25,.75,.08,1.08,0,1.57-.25,1.82-.17,.17-.25,.41-.25,.58s0,.33-.08,.41c-.08,.08-.08,.25,0,.33,.17,.25,0,.41-.5,.75-.25,.17-.41,.33-.33,.41,.08,.08,0,.25-.17,.33s-.33,.33-.33,.5-.17,.41-.33,.5c-.17,.08-.25,.25-.25,.33s-.08,.25-.17,.33-.17,.41-.17,.66-.08,.58-.17,.75c-.33,.41-1.24,2.4-1.24,2.65,0,.08,.08,.17,.17,.17s1.24-.5,2.65-1.08,2.82-1.16,3.15-1.32c1.57-.66,1.9-.83,1.99-1.08,.08-.33,0-3.06-.17-4.39-.08-.5-.17-1.16-.17-1.49s-.08-.75-.17-.99c-.08-.41,0-.99,.33-1.57,.08-.17,.17-.66,.17-1.08s.08-.91,.17-1.08c.17-.33,0-.83-.17-.66-.08,.08-.25-.08-.33-.33-.08-.25-.17-.41-.25-.41l-.17-.17Zm-5.63-2.73c.17,0,.08,.41-.17,.91-.25,.5-.33,.25-.08-.33,.17-.25,.33-.5,.41-.5l-.17-.08Zm.5-.66c.08,0,.08,.08,.08,.17-.08,.25-.17,.33-.17,.08,0-.08,.08-.17,.17-.25h-.08Zm.33-.83c.08,0,.08,.17,0,.33s-.17,.25-.25,.25-.08-.17,0-.33c0-.08,.08-.17,.17-.17l.08-.08Zm1.74,13.99c.08,0,.17,0,.17,.08,.08,.08,0,.33-.17,.5-.17,.17-.41,.5-.58,.66s-.33,.33-.41,.33c-.17-.08-.25-.66-.08-.75,.5-.17,.83-.33,.99-.66,.08-.17,.17-.25,.25-.25l-.17,.08Zm.66-1.24c.08,0,.08,.08,.08,.33,0,.17-.17,.33-.33,.33-.41,.08-.41-.17-.08-.5,.17-.17,.25-.25,.33-.25v.08Zm.25-1.24c.17,.08,.17,.17,.08,.33s-.17,.17-.25-.08c0-.17,0-.25,.08-.25h.08Zm.5-.5c-.25,.33-.33,.17-.17-.25,0-.08,.08-.17,.17-.17,.08,.08,.08,.25,0,.41Zm2.24-5.55c.17,.17,.08,.41-.25,.66-.33,.25-.33,.08-.08-.41,.08-.17,.17-.25,.25-.25h.08Z"/>
      <path class="cls-1" d="M366.3,20.5c-.41,.66-1.33,1.24-1.82,1.16-.25,0-.5,.08-.5,.25s-.66,.58-1.49,.91c-.83,.33-1.57,.75-1.66,.91-.17,.41-1.24,.83-1.9,.75-.25,0-.75,.08-1.16,.25-.75,.25-3.56,.33-3.23,.08,.25-.17,1.08-.5,2.24-.91,.5-.17,1.08-.41,1.24-.58,.17-.17,.5-.25,.66-.25s.33-.08,.33-.25c0-.33,.17-.33-2.15,0-1.08,.17-2.24,.25-2.57,.25s-.91,.25-1.24,.58c-.33,.33-.75,.5-.91,.41-.33-.25-1.16,0-1.41,.41-.08,.17-.08,.75,0,1.24,.17,.66,.08,1.08-.41,2.15-.33,.75-.75,1.49-.91,1.66-.17,.17-.41,.91-.58,1.66-.58,2.65-1.49,5.3-2.07,6.13-.17,.25-.33,.91-.41,1.41-.08,.66-.33,1.16-.66,1.41-.25,.25-.58,.91-.75,1.49s-.5,1.24-.75,1.49c-.58,.66-1.66,2.81-1.74,3.48-.08,.5,0,.58,.58,.5,.99-.08,1.57-.33,1.66-.75,0-.17,.17-.41,.33-.5,.25-.17-.17,1.32-.41,1.49-.08,.08-.25,.75-.41,1.49-.17,.75-.41,1.49-.66,1.74s-.5,.75-.58,1.08c-.5,2.32-.91,3.64-1.08,3.64-.08,0-.17,.17-.17,.33s.17,.33,.41,.33c.33,0,.33,.17,.17,.66-.17,.33-.41,.99-.58,1.49-.17,.66-.66,1.24-1.82,2.07-.91,.75-1.66,1.16-1.74,.99-.08-.17-.58-.25-1.08-.25-.83,0-.99-.08-1.41-.83-.33-.58-.58-.83-.91-.75-.66,.17-2.48-1.16-3.39-2.4-.75-1.08-.75-1.16-.41-1.9,.17-.41,.5-.91,.75-1.08,.33-.33,.33-.5,.17-.99-.17-.5-.08-.58,.66-.99,.91-.58,1.24-1.82,.58-2.15-.5-.25-.41-.66,.25-1.32,.66-.66,.83-1.41,.33-1.49-.17,0-.33-.17-.33-.33,.08-.99,1.24-4.06,1.66-4.55,.66-.75,1.16-1.41,1.41-1.82,.08-.17,.41-.58,.66-.83,.75-.75,.75-1.24,0-1.16-.5,.08-.58,0-.5-.5,0-.33,.17-.66,.33-.75s.33-.58,.41-1.08c.08-.5,.33-1.08,.58-1.24,.25-.17,.5-.58,.5-.91s.08-.58,.17-.58c.33,0,2.4-3.97,3.31-6.54,.25-.66,0-1.16-.33-.75-.08,.17-.5,.25-.91,.17-.41-.08-1.57,.08-2.57,.33-1.9,.41-2.81,.41-2.9,0,0-.17-.5-.41-.99-.58-.5-.17-1.66-.83-2.48-1.49-.83-.66-1.9-1.41-2.4-1.74-.5-.33-.91-.66-.91-.75s-.25-.41-.5-.66q-.5-.5,0-1.32c.5-.75,.58-.83,1.57-.75,.58,.08,1.66,0,2.4-.17,3.48-.75,4.72-.99,6.29-1.08,.91-.08,1.82-.17,2.07-.25,.25-.08,.75-.08,1.16-.08s.99-.08,1.24-.17c.25-.08,.99-.33,1.66-.5,.66-.17,1.32-.41,1.49-.58,.25-.25,.75-.25,2.07,0,1.49,.25,2.07,.25,3.97-.17,1.24-.25,2.65-.58,3.15-.75,1.41-.58,3.4-.75,5.71-.5,1.9,.17,2.07,.25,2.82,.99,.41,.41,.91,.99,.99,1.32,.08,.33,.58,.91,1.08,1.32,.91,.83,.99,1.08,.5,1.82l.25,.08Z"/>
      <path class="cls-1" d="M357.36,57.67c.41-1.49,.99-4.39,1.41-6.95,.25-1.74,.5-2.73,.91-3.64,.58-1.24,1.57-5.22,1.74-6.79,.08-.91,.25-1.99,.41-2.4,.17-.41,.33-1.24,.33-1.82s.17-1.16,.33-1.24c.17-.08,.33-.66,.41-1.24,.08-.58,.41-1.74,.75-2.57,.33-.83,.66-1.82,.66-2.15s.17-.99,.33-1.41c.17-.41,.33-.91,.33-1.08s.5-1.49,.99-2.9c.99-2.73,1.24-4.22,.75-4.55-.17-.08,0-.41,.41-.83,.91-.91,1.74-1.32,2.73-1.32,.5,0,.99-.08,1.08-.25,.33-.5,3.23,.17,3.64,.83,.25,.33,.58,.58,.75,.58s.5,.25,.75,.5c.33,.41,.41,.99,.33,2.73-.08,2.57-.41,4.31-.75,4.55-.17,.08-.25,.41-.25,.66s-.41,1.32-.91,2.32c-.5,.99-1.08,2.48-1.33,3.31-.25,.83-.58,1.57-.75,1.74-.17,.17-.25,.58-.25,.91s-.17,.75-.33,.91c-.17,.17-.33,1.08-.33,1.99s-.08,1.74-.17,1.82c-.25,.25-1.08,1.66-1.9,3.31-.41,.83-.83,1.49-.99,1.49-.33,0-2.73,4.8-2.73,5.46,0,.17-.17,.5-.33,.75-.75,1.32-1.24,2.57-1.08,2.9,.08,.17-.25,.83-.75,1.49-.5,.66-.91,1.41-.91,1.57s-.33,.66-.66,1.08-.91,1.16-1.33,1.66c-.41,.5-.91,.91-1.08,.91s-.58,.25-.91,.58c-.33,.33-.83,.58-1.16,.5-.75-.08-.83-1.16-.25-3.15l.08-.25Z"/>
      <path class="cls-1" d="M414.41,7c-.08,.33-.41,1.16-.75,1.82-.33,.66-.58,1.32-.58,1.49,.08,.66-.41,1.41-1.33,2.07-.5,.33-.91,.75-.91,.91s-.17,.5-.41,.66c-.25,.17-.66,.91-.91,1.57-.25,.66-.66,1.66-.91,2.15-.25,.5-.66,1.41-.91,1.99s-.58,.99-.75,.99-.41,.25-.5,.5c-.08,.25-.33,.75-.58,1.08-.25,.33-.5,1.08-.58,1.57-.25,1.32-.66,2.4-.91,2.4s-1.16,1.57-1.24,2.15c-.08,.91-.5,1.82-1.24,2.73-.41,.5-.75,.99-.75,1.08s-.33,.75-.75,1.41c-.41,.66-.75,1.41-.75,1.74s-.33,.83-.66,1.16c-.66,.66-2.24,3.64-2.73,5.3-.17,.5-.58,1.16-.83,1.41-.66,.58-.75,1.16-.17,1.57,.33,.25,.25,.5-.66,1.99-.58,.91-1.08,1.74-1.08,1.82s-.25,.66-.5,1.32c-.25,.66-.58,1.49-.66,1.82-.08,.33-.5,1.08-.91,1.57s-.75,.99-.75,1.08-.17,.33-.33,.5c-.66,.75-1.41,1.99-1.57,2.65-.08,.33-.58,1.08-1.08,1.66-.75,.83-1.16,1.08-1.99,1.16-.58,.08-1.82,.33-2.82,.58-1.66,.33-1.82,.33-3.15-.17-1.41-.58-3.81-2.73-4.06-3.73-.33-.99-.75-3.56-.66-3.73,.08-.08,.25-1.16,.33-2.32,.25-2.98,.5-4.39,1.41-8.53,.08-.41,0-.58-.25-.58s-.5-.17-.58-.41c-.17-.5,.58-3.15,.99-3.4,.17-.08,.17-.17,0-.25-.41-.25-.33-1.41,.17-2.98,.25-.75,.41-1.57,.41-1.9s.08-.91,.25-1.32c.17-.41,.83-2.32,1.49-4.22,1.16-3.56,1.41-5.55,.91-7.95q-.17-.91,.91-1.32c1.49-.58,2.73-.58,4.72,.08,2.4,.83,2.65,1.16,2.57,3.73,0,1.16-.08,2.24-.17,2.4-.08,.17-.25,1.08-.33,2.07s-.33,2.48-.58,3.31c-.33,1.08-.41,1.82-.25,2.32,.08,.41,.08,1.08-.08,1.41-.17,.33-.5,1.57-.75,2.73-.25,1.16-.58,2.57-.75,3.15-.17,.75-.17,1.16,.08,1.49,.25,.33,.25,.66,0,1.16-.17,.41-.33,1.57-.33,2.65s-.17,2.4-.41,2.98c-.41,1.16-.5,2.32-.17,2.32,.08,0,.5-.41,.83-.91,.33-.5,1.49-1.82,2.57-2.9s1.99-2.07,1.99-2.24,.33-.83,.75-1.49c.41-.66,.75-1.32,.75-1.41s.25-.41,.58-.66c.33-.25,.58-.66,.58-.91s.25-.91,.58-1.57c.33-.66,.91-1.82,1.32-2.65,.41-.83,1.08-1.82,1.41-2.24,.33-.41,.75-1.08,.91-1.49,.17-.41,.66-1.24,1.08-1.82,.41-.58,.75-1.16,.83-1.32,.41-.91,2.82-4.64,3.06-4.64,.17,0,.25-.17,.17-.33-.08-.17,.5-1.57,1.24-3.15,1.82-3.64,2.15-4.31,2.57-5.38,.17-.5,.41-.91,.5-.91s.25-.33,.33-.75c.08-.41,.25-.83,.33-.91,.08-.08,.41-.66,.75-1.32s.75-1.24,.99-1.32,.41-.41,.41-.66,.33-.75,.66-1.08,.66-.75,.66-.91c0-.83,2.32-2.15,3.31-1.9,.75,.17,1.41,1.41,1.16,2.24l-.58-.25Z"/>
      <path class="cls-1" d="M426.75,15.95h.75c.58,.08,1.49,.08,2.07,0,1.57-.08,4.64,0,5.71,.17,1.08,.17,2.73,.17,2.82,.83,.08,.41-.33,.66-2.4,1.57-2.15,.91-2.65,1.24-3.15,1.99-.41,.58-.83,.83-1.41,.91-.41,.08-1.33,.33-1.99,.58-.66,.25-2.07,.66-3.15,.91-1.08,.25-2.07,.58-2.15,.75s-.58,.33-1.08,.41c-.58,.08-1.08,.33-1.32,.66-.25,.33-.33,.58-.25,.58s.08,.17-.08,.41c-.17,.25-.41,.83-.58,1.32-.25,.99-.66,2.15-1.33,3.56-.25,.5-.58,1.32-.75,1.82l-.25,.91,2.4-.5c2.81-.58,3.06-.66,5.13,0-.08,2.81-3.15,7.78-6.46,8.11,0,0-2.57,.75-3.23,.91-2.15,.5-3.31,4.72-3.97,5.88-.33,.58-.58,1.32-.58,1.66,.08,.33-.17,.83-.5,1.16-.75,.75-1.32,2.15-1.32,3.06,.91-.08,1.66-.08,1.9,0,.83,.17,6.87-.66,7.95-1.08,.41-.17,1.24-.33,1.82-.33,1.99-.08,6.38-1.49,7.45-2.4,.66-.5,.91-.75,1.16-.66,.17,.08,.33,.25,.66,.58,.41,.41,.75,1.08,.66,1.49-.17,.99-3.48,3.89-4.64,4.06-.99,.17-4.31,1.82-6.79,3.39-.83,.5-1.74,.91-1.99,.83-.25-.08-1.99,.41-3.89,.99s-3.64,1.08-3.89,.99c-.25-.08-1.16,0-1.99,.17-1.24,.17-2.82,0-4.31-.41-.25,.08-.58,.17-.91,.25-.83,.33-1.33,.41-1.66,.25-.33-.17-.5-.17-.66,0-.33,.41-1.74,0-1.99-.58-.33-.83-.41-2.4-.17-3.06,.17-.33,.66-.91,1.16-1.24,.91-2.65-.75-2.48,1.57-6.21,.91-1.9,1.08-2.48,.58-2.4-.25,0-.08-.75,.5-2.24,.5-1.24,.91-2.32,.91-2.4s.17-.33,.41-.66c.66-.99,3.39-7.53,3.39-7.53,.08-.58,.33-1.16,.58-1.24,.41-.17,1.16-2.15,1.08-2.81,0-.17,.5-1.16,1.08-2.24,.58-1.08,1.08-2.07,1.08-2.15-.66-1.9,1.08-7.12,3.64-9.19,.66-.08,1.99-.41,2.98-.75,.99-.33,3.15-.75,5.22-.99,1.57-.17,3.15-.33,4.14-.33v.25Z"/>
    </g>
  </g>
</svg>