<?xml version="1.0" encoding="UTF-8"?><svg id="Layer_2" xmlns="http://www.w3.org/2000/svg" viewBox="0 0 713.14 399.47"><defs><style>.cls-1,.cls-2{fill:none;}.cls-2{stroke:#24c4f0;stroke-miterlimit:10;stroke-width:.78px;}.cls-3{fill:#ffdb00;}.cls-4{fill:#ed1067;}.cls-5{fill:#24c4f0;}</style></defs><g id="blood_drops"><rect width="713.14" height="399.47"/><path class="cls-1" d="m245.07,278.32c.79,4.62,1.85,14.49,2.82,24.37l9.5-48.69c-1.81-1.15-4.32-2.3-7.03-3.36l-5.28,27.67Z"/><path class="cls-1" d="m201.65,264.31c-4.77,6.77-8.96,36.55-11.7,61.16l11.7-61.16Z"/><path class="cls-1" d="m150.35,256.25c2.73-1.55,5.69-2.96,8.63-4.26l2.72-14.23c-3.01.02-5.81.2-7.9.38l-3.46,18.1Z"/><path class="cls-5" d="m268.42,197.44l-6.13,31.42c5.94,4.08,11.08,8.95,14.81,13.37,10.88,12.91,14.78,55.43,11.73,47.62-3.06-7.82-6.12-9.86-6.12-9.86l-7.85-18.52-6.71,5.59s-3.8-7.19-9.23-11.95c-.42-.37-.95-.74-1.53-1.12l-9.5,48.69c.66,6.75,1.28,13.5,1.73,18.56.24,2.7-3.11,4.1-4.9,2.07l-.7-.79-3.47,17.77,64.6-5.75,27.61-143.16-64.34,6.04Z"/><path class="cls-3" d="m233.44,245.33l3.74,17.11s5.78,7.7,7.48,13.82c.13.46.27,1.17.42,2.06l5.28-27.67c-7.65-2.99-16.92-5.32-16.92-5.32Z"/><path class="cls-3" d="m255.32,224.67l5.38-28.17-46.71,3.3-5.73,29.97c2.98-1.1,7.82-3.22,15.67-7.21,10.24-5.21,21.47-3.02,31.4,2.11Z"/><path class="cls-3" d="m229.02,293.59s-17.67-37.39-26.51-30.25c-.29.23-.58.56-.86.97l-11.7,61.16c-.67,6.04-1.26,11.75-1.74,16.75l45.31-3.39,5.35-28.04v-3.95l-9.86-13.25Z"/><path class="cls-3" d="m188.23,254.51c-2.72,0-30.93,19.82-30.93,19.82h-2.59l-13.62,71.24,11.45-1.13c9.76-27.11,30.25-74.3,30.25-74.3,0,0,8.16-15.63,5.44-15.63Z"/><path class="cls-3" d="m177.7,240.57c-3.75-2.29-10.25-2.84-15.99-2.81l-2.72,14.23c11.84-5.22,23.4-8.56,18.71-11.42Z"/><path class="cls-3" d="m203.73,199.74l-35.39,3.3-2.22,11.62c14.09,1,26.03,7.88,32.4,12.34l5.2-27.26Z"/><path class="cls-3" d="m158.28,214.75l2.39-12.53-26.73,3.3-3.89,20.32c5.4-3.57,11.54-6.79,18.42-9.05,3.32-1.09,6.6-1.73,9.81-2.04Z"/><path class="cls-3" d="m132.43,294.85c-1.71.75-2.27-5.79-1.84-7.61,1.11-4.77,3.63-12.97,9.05-21.86,2.14-3.51,6.1-6.52,10.72-9.13l3.46-18.1c-2.22.19-3.64.39-3.64.39l-8.84-4.08-13.93,11.56-1.27.34-19.45,101.7,26.81-3.5,11.91-62.36-1.69,3.24-11.28,9.42Z"/><path class="cls-3" d="m186.72,342.34l1.48-.11c.48-5,1.07-10.71,1.74-16.75l-3.22,16.86Z"/><path class="cls-2" d="m414.36,188c-5.37,13.41-10.48,26-16.19,39.27-2.09,4.88-3.83,9.07-5.2,12.59-1.37,3.52-2.34,6.53-2.9,9.05.32-2.5.38-5.45.17-8.85-.21-3.4-.58-7.44-1.15-12.13-1.68-12.84-3.51-25.66-5.42-38.47-10.58.73-15.92,1.1-26.69,1.85-6.44,47.65-15.27,94.69-25.73,141.64,10.7-.74,15.87-.71,26.57-1.45,3.26-14.94,6.6-30.3,9.59-45.29.27-1.36.6-3.48.98-6.34.38-2.86.75-5.71,1.11-8.54.36-2.83.75-6.34,1.16-10.52-.04,17.86-.65,35.85-1.31,53.71,6.5-.47,9.9-.39,16.4-.85,6.72-18.3,13.34-37.08,19.9-55.44-1.11,4.23-2.03,7.77-2.74,10.63-.71,2.86-1.42,5.73-2.15,8.62-.73,2.89-1.22,5.03-1.48,6.39-2.88,15.02-5.96,30.56-9.02,45.55,10.7-.74,16.07-.78,26.77-1.52,8.91-47.03,17.47-93.98,23.62-141.44-10.29.71-15.89.85-26.29,1.57Z"/><path class="cls-2" d="m447.07,186.07c-6.08,47.1-14.74,94.53-23.49,141.22,10.85-.75,16.44-.75,27.29-1.49,8.06-46.69,15.98-94.5,21.74-141.53-10.27.71-15.2,1.09-25.54,1.8Z"/><path class="cls-2" d="m496.83,183.34c-12.38,47.94-27.51,93.87-42.02,141.21-.03.17-.16.82-.19.99,10.55-.73,15.88-.84,26.43-1.57,2.36-9.69,3.44-14.02,5.72-23.12,6.45-.47,9.68-.7,16.14-1.17-.44,8.98-.67,13.59-1.13,23.19,10.63-.74,15.94-1.1,26.56-1.84.02-.17.03-.25.05-.42-.55-46.43-1.07-92.84-3.01-139.24-11.43.79-17.13,1.19-28.56,1.98Zm7.13,90.98c-4.13.31-6.19.46-10.32.77,4.11-16.11,8.18-32.23,12.05-48.4-.43,15.88-1.04,31.76-1.72,47.64Z"/><path class="cls-2" d="m605.7,176.63c-4.7,13.19-9.53,25.7-14.66,38.74-1.83,4.81-3.33,8.93-4.5,12.39-1.17,3.47-1.96,6.44-2.37,8.92.17-2.47.06-5.37-.33-8.72-.39-3.35-.98-7.32-1.77-11.94-2.31-12.64-4.67-25.27-7.06-37.9-10.27.71-15.38,1.07-25.58,1.78-4.64,47.28-11.45,93.87-17.33,141.01,10.7-.74,16.02-.91,26.72-1.66,1.63-15.24,3.39-30.26,5.26-45.48.17-1.36.34-3.49.51-6.35.17-2.86.34-5.7.52-8.53.17-2.82.34-6.31.49-10.45,1.03,17.94,1.99,35.67,2.97,53.61,6.49-.47,9.72-.48,16.22-.95,4.98-18.47,10.2-36.87,15.54-55.24-.84,4.19-1.51,7.71-2.02,10.56-.5,2.85-1.01,5.71-1.52,8.6-.51,2.89-.84,5.03-.99,6.39-1.7,15.25-3.29,30.52-4.68,45.8,10.7-.74,16.05-1.11,26.75-1.86,4.02-47.13,10.01-93.29,13.94-140.42-10.54.73-15.72.97-26.11,1.69Z"/><path class="cls-2" d="m624.38,315.39c10.85-.75,15.56-.87,27.03-1.37,3.59-46.97,9.69-94.21,13.65-141.15-10.85.75-16.22,1.12-26.87,1.86-3.91,46.95-9.89,93.7-13.81,140.66Z"/><path class="cls-4" d="m193.8,63.99c-.69,1.53-1.58,3.06-1.88,3.57-.3.51-1.23,2.28-1.97,4-.73,1.72-1.67,3.44-1.96,3.93s-1.62,3.17-2.78,5.99c-1.16,2.83-2.48,5.38-2.78,5.85-.3.47-.93,1.63-1.32,2.54-.39.91-1.16,2.72-1.84,4.07-.68,1.35-1.7,3.36-2.13,4.45-.43,1.09-2.76,5.5-5.08,9.76-4.31,7.89-7.93,15.15-10.44,21.03-.84,1.96-2.47,5.65-3.64,8.15-1.17,2.5-2.95,5.95-3.74,7.66-1.91,3.99-4.79,8.77-7.35,12.02-3.64,4.63-4.24,5.39-6.33,8.44-1.19,1.72-2.21,3.6-2.33,4.15-.12.55-.81,1.87-1.63,2.84-.82.97-2.66,3.83-4.2,6.32-1.55,2.49-4.15,6.18-5.78,8.16-1.63,1.98-3.58,4.55-4.43,5.74-1.7,2.38-1.97,2.35-9.85,14.94-3.22,5.16-6.35,10.09-6.88,10.75-1.05,1.31-5.58,1.37-7.58.13-1.8-1.11-2.6-3.67-1.38-4.76.49-.44.88-1.46,1.07-2.47.19-1,1.13-3.83,2.2-6.23,4.02-9.19,5.35-12.02,5.74-13.48.19-.69.92-2.47,1.56-3.62.65-1.15,3.07-5.91,5.5-10.6,2.43-4.69,4.84-9.17,5.46-10.11.61-.94,2.33-4.12,3.98-6.93,1.64-2.82,3.91-6.59,5.11-8.31,1.2-1.72,2.48-3.82,2.9-4.76.3-.61.45-.91.75-1.51-1.61.29-2.41.43-4.02.72-2.11.37-4.85.79-6.09.9-1.24.11-3.81.7-5.76,1.23-5.26,1.72-10.4,1.98-15.05.94-2.11-.54-3.9-.75-4.15-.55-.25.2-1.04,1.89-1.91,3.93-3.27,7.26-8.34,16.31-11.29,20.44-.33.56-1.19,1.69-1.8,2.62-2.33,3.2-7.97,9.52-11.24,12.47-1.76,1.57-3.31,3.14-3.35,3.33-.08.37-1.59,1.75-4.78,4.36-3.68,3.02-7.73,3.85-10.45,2.19-1.81-1.17-1.59-3.2.5-4.43.94-.61,1.79-1.76,2.52-3.26,1.48-3.17,3.65-7.61,5.32-10.57.69-1.29,2.15-4.23,3.24-6.43,4.83-9.88,8.13-16.16,10.75-20.66,2.7-4.65,2.57-5.07-1.16-4.77-.42.03-.95-.29-1.29-.62-.33-.34-.87-.66-1.29-.62-.42.03-2.12-1.46-3.73-3.35-2.73-3.27-2.85-3.65-1.61-3.75.83-.07,3.41-.64,5.78-1.21,2.37-.56,6.15-1.06,8.44-1.25,1.66-.14,2.49-.21,4.15-.34,1.43-2.36,2.14-3.55,3.57-5.96,1.98-3.41,5.83-9.77,8.68-14.46,5.35-8.74,8.99-15.41,13.75-25.8,5.75-12.54,10.65-23.25,12.73-26.78,1.17-1.9,2.95-4.94,3.86-6.61.71-1.23,1.07-1.85,1.78-3.09,1.26.23,1.89.35,3.15.58,6.14.89,10.6,4.27,10.95,7.83.12,1.53-.14,2.83-1.07,4.66-.66,1.29-2,4.93-2.92,7.88-2.43,7.78-8.21,17.95-14.5,24.75-2.91,3.27-5.52,7.96-7.47,13.21-3.35,9.03-4.88,12.17-8.58,17.8-1.89,3.01-3.48,5.56-3.52,5.75-.09.38,5.56-.17,9.12-.8,2.49-.44,6.64-.6,11.1-.62,6.28-.03,7.4-.08,9.78-1.07,1.56-.66,3.32-1.24,3.94-1.29.62-.06,1.24-.11,1.28-.31.04-.19,1.71-3.17,3.73-6.77,2.61-4.63,3.5-6.7,3.17-7.06-.12-.38-.14-1.42.07-2.17.44-1.56,6.43-11.09,7.43-12.01.25-.23.59-.89.68-1.31.09-.43.73-1.53,1.32-2.43,2.92-4.27,7.24-12,7.57-13.27.4-1.54,2.71-6.63,3.92-8.55,1.39-2.21,2.12-3.69,4.25-8.43,2.03-4.51,5.3-11.05,7.84-16.19,1.25-2.44,1.7-2.75,3.76-2.93,1.23-.1,3.19.26,4.28.95,1.09.69,2.8,1.32,3.73,1.75,2.68.8,4.53,2.78,5.54,5.09.93,2.12.98,2.43-.94,6.24-.28-.65-.42-.98-.71-1.64Z"/><path class="cls-4" d="m227.4,82.48c1.23-.12,2.84-.06,4.85-.05,4.41,0,5.99.26,6.44,1.08.28.62.81,1,1.22.95.41-.04,1.1.53,1.59,1.12.49.59,1.75,1.31,2.74,1.42,2.75.35,10.12,3.78,11.05,5.13.94,1.35,1.79,9.28,1.53,12.15-.1,1.13-.35,3.58-.48,5.15-.13,1.57-.42,2.95-.67,3.17-.25.22-.86,2.03-1.46,3.99-1.49,4.86-2.37,7.27-4.72,12.53-1.11,2.35-2.1,5.03-2.31,5.97-.21.94-.66,2.09-1.19,2.7-.54.61-2.24,3.09-3.79,5.34-1.88,2.74-4.16,5.27-6.38,7.04-1.85,1.48-5.06,4.7-6.78,7.06-1.72,2.36-3.68,4.94-4.22,5.54-1.39,1.79-5.86,5.71-6.48,5.77-.21.02-.74.62-1.06,1.21-.73,1.55,1.6,3.01,3.58,2.27.66-.25,1.49-.32,1.86-.17.71.49-1.32,3.49-3.46,5-.94.65-1.8,1.86-1.95,2.63-.27,1.35-4.16,4.55-6.79,5.55-.87.27-2.09,1.33-2.7,2.35-1.21,2.03-5.59,4.75-7.66,4.92-.62.05-2.56.61-4.53,1.36-1.97.75-4.49,1.16-5.9,1.09-1.41-.08-3.11.32-3.8.71-.84.49-2.19.4-4.36-.61-1.65-.77-3.38-1.46-3.79-1.42-.41.03-3.85-1.27-7.58-2.81-5.39-2.23-6.88-3.21-8.27-5.34-.93-1.42-2.07-2.8-2.4-3.14-.67-.68-2.17-5.15-2.78-8.01-.22-.89-.07-3.44.4-5.65.48-2.21.71-4.21.55-4.37-.67-.66,3.88-12.93,5.57-15.08.58-.78.95-1.53.78-1.7-.17-.17.54-1.5,1.7-3.06,1.16-1.56,2.11-3.11,2.15-3.3-.12-.35,3.65-7.4,4.24-8.14.49-.6,2.56,1.24,2.35,2.18-.08.38-.37.77-.79.81-.41.04-.83,1-1.08,2.13-.25,1.13-1.04,2.85-1.87,3.84-.83.99-1.53,2.33-1.66,2.89-.12.56-.68,1.19-1.12,1.38-.61.26-1.03,1.24-1.16,2.46-.23,2.3.45,2.66,1.49.58,1.5-2.99,4.26-8.21,5.13-9.39.58-.79,2.12-3.13,3.4-5.29,2.99-5.28,5.75-9.54,6.37-9.6.21-.02,2.78-2.54,5.65-5.52,2.87-2.98,6.49-6.67,7.99-8.01,1.5-1.33,2.58-2.64,2.46-3.02-.12-.39.3-1.43,1.1-2.31.79-.88,1.38-1.75,1.42-1.96.13-.62-5.96,2.42-7.66,3.79-1,.9-2.5,2.24-3.45,2.93-.68.54-1.02.81-1.7,1.36.46.11.69.17,1.15.28.78.12,1.27.66,1.14,1.26-.26,1.2-2.5,3.17-3.74,3.3-.62.06-2.74,1.44-4.69,2.98-2.91,2.21-4.25,3.99-5.95,6.87-1.17,1.99-2.71,4.02-3.16,4.25-.46.23-.43,0-.04-.74.3-.58,1-1.78,1.42-2.76.42-.98,1.63-2.8,2.75-4.25,1.13-1.44,2-2.68,2.05-2.88.13-.59,5.17-6.13,7.96-8.78,1.54-1.54,4.17-4.4,5.55-6.15,1.38-1.75,2.72-3.32,2.92-3.34.21-.02,3.16-2.56,6.62-5.62,3.46-3.06,7.57-6.46,9.19-7.48,1.62-1.02,4.6-2.83,6.67-4.13,3.23-2.07,4.14-2.6,8-2.77.21.15.32.23.53.38Zm15.96,10.91c-.37-.17-.87.3-1.9,1.44-1.04,1.14-2.24,2.08-2.65,2.12-.41.04-1.61.99-2.61,1.9-1,.92-2.2,1.85-2.61,1.89-.41.04-1.57.77-2.36,1.66-.79.89-2.65,2.08-4.02,2.82-3.35,1.54-5.3,3.13-5.64,4.74-.38,1.81-5.35,5.77-8.33,6.88-3.27,1.22-4.26,1.99-7.46,5.54-1.37,1.66-3.44,3.75-4.48,4.79-1.04,1.04-2.16,2.46-2.53,3.24s-1.33,2.36-2.2,3.56c-.87,1.19-1.78,2.57-1.91,3.14-.12.56-.7,1.35-1.41,1.79-.7.44-1.32,1.41-1.49,2.16-.17.75-.79,1.72-1.32,2.32-1.53,1.42-4.21,6.21-4.66,8.24-.2.92-1.52,3.22-2.96,5.16-3.49,4.84-4.71,9.42-4.7,18.05.09.54.64,1.98,1.36,3.2.9,1.53.94,2.33.37,3.12-1.38,1.8,1.21,4.02,4.31,3.75,2.27-.2,7.05-1.75,9.77-3.12,1.81-.91,18.98-15.28,19.84-16.47.33-.58,1.18-1.76,1.96-2.57,1.84-2.01,8.82-9.98,10.22-11.76,4.93-5.95,6.45-8.31,8.64-12.74,1.43-2.9,2.97-6.2,3.63-7.38.66-1.18,1.32-3.3,1.62-4.63.29-1.34,1.04-2.92,1.58-3.54.54-.62,1.24-2.02,1.49-3.18.25-1.17.71-2.36,1-2.77.83-1.04,1.21-2.81.68-4.11-.29-.55-.26-3.46,0-6.64.47-5.94.07-10.05-.91-11.18-.16-.19-.37-.17-.57-.15.1-.5.15-.76.26-1.26Z"/><path class="cls-4" d="m351.86,86.03c-1.35,1.76-3.9,3.44-5.09,3.37-.62.07-1.27.34-1.36.75-.08.41-1.93,1.61-4.15,2.65-2.22,1.04-4.27,2.25-4.56,2.68-.61,1.05-3.49,2.35-5.1,2.33-.62.07-1.89.4-3,.92-1.97.8-9.01,1.77-8.07,1.07.7-.47,2.92-1.5,6.01-2.82,1.32-.54,2.88-1.3,3.37-1.75.49-.45,1.36-.74,1.77-.79.41-.04.86-.29.95-.7.16-.81.54-.88-5.35.58-2.75.68-5.68,1.21-6.5,1.3-.82.09-2.39.86-3.37,1.75-.99.9-2.1,1.41-2.47,1.26-.7-.52-2.88.31-3.7,1.39-.29.42-.63,1.88-.62,3,.01,1.49-.35,2.57-2.1,5.26-1.2,1.85-2.59,3.73-3.09,4.17-.49.44-1.48,2.26-2.26,4.05-2.76,6.36-6.33,12.68-8.18,14.73-.53.61-1.3,2.19-1.72,3.33-.55,1.5-1.47,2.73-2.34,3.39-.73.56-1.89,2.23-2.58,3.6-.69,1.37-1.84,2.96-2.58,3.59-1.77,1.66-5.47,6.88-6.01,8.38-.42,1.14-.25,1.28,1.21.99,2.44-.49,4.08-1.15,4.49-2.12.08-.38.61-.99,1.06-1.22.7-.44-1.05,3.08-1.75,3.52-.25.21-.98,1.77-1.74,3.53-.77,1.76-1.74,3.54-2.48,4.18-.74.64-1.59,1.85-1.96,2.64-2.33,5.51-3.98,8.75-4.39,8.78-.21.02-.49.43-.57.82-.08.39.26.75.88.69.83-.08.78.42.11,1.53-.49.81-1.55,2.49-2.13,3.69-.75,1.55-2.36,3.12-5.49,5.41-2.6,1.9-4.66,3.2-4.79,2.81-.13-.39-1.33-.48-2.57-.37-2.07.19-2.44,0-3.13-1.7-.55-1.32-1.07-1.87-1.93-1.59-1.73.55-5.74-2.25-7.36-4.96-1.38-2.31-1.32-2.56-.14-4.39.61-1.01,1.67-2.24,2.36-2.69.98-.85,1.06-1.24.88-2.35-.18-1.11.14-1.3,2.12-2.46,2.52-1.46,3.96-4.49,2.47-5.09-1.12-.45-.72-1.42,1.25-3.09,1.97-1.67,2.74-3.41,1.54-3.48-.41.04-.75-.3-.67-.67.68-2.28,5.06-9.52,6.34-10.75,2.01-1.86,3.58-3.49,4.4-4.49.29-.4,1.32-1.42,2.06-2.05,2.22-1.89,2.42-3.06.57-2.64-1.26.28-1.32.09-.99-1,.21-.68.74-1.56,1.19-1.79.45-.23,1.11-1.41,1.56-2.57.45-1.16,1.36-2.56,2.06-3,.7-.45,1.52-1.46,1.69-2.23.16-.76.49-1.36.7-1.38.82-.09,7.96-9.87,11.51-16.25.95-1.65.58-2.78-.45-1.7-.29.42-1.36.73-2.35.64-.99-.09-3.98.66-6.55,1.48-4.86,1.54-7.21,1.74-7.21.77.08-.4-1.03-.86-2.18-1.13-1.15-.27-3.7-1.55-5.42-2.94-1.72-1.39-4.02-2.93-5.09-3.62-1.07-.69-1.93-1.4-1.88-1.6.04-.21-.41-.96-.9-1.52-.98-1.11-.99-1.17.68-3.32,1.55-2,1.94-2.32,4.29-2.3,1.36.01,4.11-.44,6.05-1.05,9.02-2.81,12.31-3.72,16.17-4.41,2.27-.4,4.61-.91,5.26-1.18.66-.28,1.89-.41,2.92-.52,1.03-.11,2.51-.48,3.17-.76.66-.28,2.63-1.12,4.36-1.72,1.73-.6,3.49-1.42,3.99-1.9.74-.71,2-.8,5.13-.55,3.53.28,5.04.04,9.94-1.49,3.17-.99,6.86-2.21,8.17-2.77,3.78-1.88,8.84-2.79,14.4-2.82,4.59-.02,5.01.1,6.49,1.83.82.96,1.77,2.32,1.82,3.14.04.82.99,2.17,2.02,3.08,1.86,1.85,1.94,2.45.35,4.44.23.06.35.08.58.14Z"/><path class="cls-4" d="m388.22,149.17c-2.17,1.75-9.88,5.99-11.12,6.11-.62.06-1.56.73-1.88,1.35-.32.61-2.17,1.76-3.93,2.52-1.77.75-3.61,1.91-3.97,2.72-.36.82-4.8,3.57-10.15,6.46-5.19,2.81-9.75,5.47-10.03,5.9s-2.78,1.86-5.48,3.31c-2.7,1.45-5.65,3.14-6.55,3.62-2.5,1.44-8.21,1.55-12.45.33-9.45-2.75-12.17-4.94-13.42-10.59-.88-3.94-.57-5.34,1.43-7.25.77-.84,1.91-2.47,2.35-3.66,1.44-4.13,5.14-10.89,7.91-14.9,3.53-5.11,13.49-21.95,14.31-23.92.37-.79,1.31-2.4,2.17-3.63,2.22-2.88,5.08-8.91,5.65-11.66.24-1.18,1.92-4.45,3.72-7.39,1.8-2.93,3.4-5.88,3.52-6.49.12-.61,1.06-2.1,2.05-3.22,1.31-1.49,2.13-3.62,3.09-8.65.51-2.69.77-4.04,1.28-6.79,2.35-.5,3.52-.76,5.87-1.26,3.16-.76,6.56-1.62,7.38-1.85,1.92-.54,4.15.41,6.92,2.82,2.77,2.41,3.25,5.24,1.75,8.84-.73,1.7-2.31,5.69-3.52,8.79-1.22,3.1-2.6,5.98-3.09,6.43-.49.44-1.68,2.33-2.66,4.17-.98,1.85-2.25,4.1-2.82,4.93-.57.83-2.28,4.08-3.67,7.08-2.59,5.54-3.63,7.78-8,15.19-1.27,2.2-2.44,4.95-2.68,6.1s-1.42,2.96-2.49,4.2c-1.06,1.24-2.32,3.43-2.64,4.97-.32,1.54-1.57,3.74-3.13,5.41-2.37,2.7-5.73,8.35-7.05,11.94-.48,1.39-.1,1.54,2.41,1.12,2.71-.46,11.74-3.07,20.63-6.05,2.18-.79,6.92-2.22,10.79-3.36,3.87-1.15,9.27-2.83,12.1-3.88,2.84-1.05,5.43-1.88,5.85-1.92,1.03-.1.48,1.68-.96,2.79.21-.25.32-.38.53-.63Z"/><path class="cls-4" d="m382.75,169.32c1.71-3.77,4.55-10.99,6.71-17.18,1.45-4.16,2.52-6.63,3.98-8.87,2.01-3.07,6.43-12.67,7.56-16.38.65-2.13,1.57-4.72,2.18-5.73.61-1.01,1.42-3,1.7-4.36.28-1.36.97-2.76,1.42-3s1.14-1.64,1.63-3.03c.48-1.39,1.86-4.21,3.09-6.26,1.22-2.05,2.52-4.5,2.68-5.29.16-.79.89-2.42,1.5-3.45.61-1.04,1.26-2.28,1.34-2.68.08-.4,1.95-3.72,3.84-7.29,3.76-6.93,5.07-10.75,3.99-11.45-.37-.16.19-1.04,1.41-2.19,2.68-2.53,4.93-3.8,7.39-4.06,1.23-.13,2.5-.47,2.79-.91,1.05-1.35,7.94-.41,8.67,1.15.46.77,1.17,1.31,1.59,1.27s1.12.5,1.62,1.05c.63.95.54,2.42-.44,6.71-1.43,6.3-3.04,10.62-3.98,11.31-.45.24-.81,1.06-.93,1.66-.12.6-1.66,3.3-3.36,5.8-1.71,2.51-3.86,6.2-4.87,8.23-1.01,2.03-2.19,3.87-2.68,4.31-.49.43-.9,1.43-1.05,2.21-.16.78-.77,1.8-1.26,2.23-.49.43-1.34,2.62-1.77,4.76-.43,2.14-1.04,4.11-1.28,4.33-.74.65-3.47,4.17-6.32,8.27-1.43,2.05-2.77,3.72-3.18,3.76-.83.08-9.08,12.05-9.39,13.63-.08.4-.64,1.23-1.17,1.86-2.48,3.35-4.29,6.47-4.03,7.23.13.38-1,2.06-2.54,3.79-1.54,1.73-2.91,3.65-2.99,4.06-.08.41-1.13,1.71-2.14,2.8-1.01,1.1-2.8,3.08-4.05,4.41-1.26,1.33-2.68,2.48-3.09,2.52-.41.04-1.56.75-2.53,1.66-.97.91-2.37,1.58-3.11,1.51-1.68-.16-1.55-2.75.79-7.79.13-.25.19-.38.32-.63Z"/><path class="cls-4" d="m549.88,16.73c-.53.94-1.41,3.02-2,4.4-.59,1.38-1.45,3.21-1.99,4.14-1.07,1.85-.88,3.35.36,3.25.62-.05.76.37.57,1.69-.16,1.09-.52,2.2-.76,2.44-.24.24-.57,1.12-.7,1.99-.13.87-.47,1.75-.7,1.98-1.13.74-1.42,3.95-.58,6.39.38,1.43.56,2.87.28,3.31-.27.44-.89,1.74-1.51,3.04-.62,1.3-1.55,3.23-2.35,4.33-.79,1.1-1.18,2.15-1.01,2.34.34.38-.53,1.88-2.05,3.65-.76.88-3.07,7.61-3.79,11-.17.78-.81,2.31-1.38,3.11-.75,1.06-1.16,1.89-1.18,3.08-.02,1.19-.4,2.01-1.39,3.09-.77.84-1.17,1.88-1.04,2.26.26.76-.13,1.78-2.72,5.74-.28.42-.72,1.63-.91,2.62-.31,1.59-1.71,4.64-2.77,5.91-.28.42-.36.81-.19.99.38.16.18.57-.23,1.19-.35.52-.8,2.02-1.04,3.21-.23,1.19-.67,2.39-.92,2.61-.25.22-.57.83-.69,1.42-.12.59-1.37,2.85-2.8,4.93-1.43,2.08-2.68,4.34-2.8,4.93-.31,1.59-3.42,8.12-4.04,8.18-.83.08-.72-1.5.25-3.35.61-1.03,1.13-2.64,1.32-3.63.2-.99.6-2,.88-2.42.49-.43.46-.82.03-1.17-.5-.41-.71-.52-.83.08-.08.4-.4,1.01-.86,1.25-.45.24-.93,1.64-1.4,4.02-.47,2.38-.99,3.99-1.44,4.23-.94.67-2.46,5.32-1.63,5.24.62-.06.57,2.3-.21,6.33-.35,1.81-1.14,3.68-2.32,5.77-.93,1.66-2.05,4.39-2.35,6.03-.3,1.64-.83,3.62-1.17,4.15-.41.63-.6,1.07-.23,1.24.38.17.26.79-.09,1.64-.68,1.49-.66,2.51.19,3.47.3.59.36,1.41-.03,2.48-.39,1.07-.48,2.57-.16,4.39.29,1.62.45,3.33.38,3.76-.39,1.09-2.8,1.94-4.97,1.68-.99-.12-2.65,0-3.72.3-1.07.3-2.55.63-3.38.7-.83.07-2.07.17-2.69.22-.83.07-1.34-.35-1.44-1.15-.07-.6-.78-1.41-1.53-1.77-.75-.36-1.64-1.12-1.94-1.72-.47-.8-1.23-1.15-2.05-1.08-1.86.16-2.41-.22-3.69-2.17-.64-.98-.83-2.2-.61-3.44.37-2.08-.28-6.28-1.22-7.8-.3-.58-.69-1.75-.71-2.74-.02-1-.24-1.97-.37-2.36-.13-.39-.26-.77-.02-.99.24-.22-.01-.99-.48-1.74-.47-.75-.74-2.5-.68-3.88.13-2.77.97-8.11,1.5-8.75.25-.22-.13-.38-.75-.32-.83.08-.96-.3-.68-1.68.31-1.58.34-2.76.64-9.34.11-1.55.64-7.2,1.31-12.65,1.23-10.11,1.39-15.23.55-16.12-.37-.16-.39-1.13-.19-2.13.19-1,.1-1.58-.14-1.35s-.61,1.04-.76,1.84c-.42,2.19-3.02,9.25-4.24,11.31-.61,1.03-1.37,2.84-1.61,4.02-.51,2.56-2.39,7.94-3.29,9.37-.28.41-.65,1.22-.77,1.81-.12.59-.44,1.2-.69,1.41-.25.22-1.03,1.85-1.53,3.61-.89,3.07-3.25,9.18-4.83,12.05-.36.81-.96,2.81-1.31,4.59-.35,1.79-.87,3.4-1.11,3.62-.25.22-.57.84-.68,1.43-.12.6-.48,1.42-.76,1.84-1.7,2.52-5.56,10.02-5.42,10.41.47.76-1.62,4.36-3.09,5.71-1.46,1.34-2.8,3.08-4.07,5.65-.36.85-1.09,1.53-1.5,1.57-.41.04-1.56.75-2.29,1.44-.73.68-2.12,1.63-2.98,1.91-.86.28-1.56.76-1.59.97-.04.21-.77.9-1.67,1.39-1.8.99-2.59.85-4.53-.84-.34-.38-.92-.54-1.17-.31-.24.23-1.62-.06-2.95-.56-2.09-.84-2.4-1.26-2.68-3.24-.33-2.37.28-3.96,3.89-9.02,3.5-4.91,8.61-13.24,8.92-14.83.19-.99.88-2.42,1.45-3.25.57-.83,1.33-2.65,1.6-4.03.27-1.38.75-2.77,1.04-3.19.28-.41.65-1.22.8-2,.23-1.18,2.91-6.43,7.05-13.93.93-1.63,1.7-3.43,1.86-4.21.16-.78,1.21-3,2.43-5.04,2.48-4.28,2.96-5.68,1.6-4.97-.66.26-.8.08-.46-.72.41-.98,5.71-10.46,7.57-13.78.57-.84,1.29-2.49,1.69-3.51.4-1.03,1.69-3.52,2.89-5.64,1.21-2.11,2.21-4.22,2.28-4.63.08-.41,1.96-4.01,4.11-8.1,2.15-4.09,4.01-7.82,4.08-8.24.33-1.9,2.1-3.97,4.26-4.82,3.92-1.66,6.14-1.65,7.87.05,1.55,1.52,1.64,2.83,1.08,5.5-.34,1.61.81,5.77,2.27,7.74,1.38,1.86,1.88,3.06,2.72,8.35.19,1.18.58,2.32.75,2.51.17.18.22.97.11,1.57s.22,3.14.58,5.45c.37,2.32.78,5.39.72,6.76-.06,1.37.21,3.09.43,4.04.22.95.42,3.08.27,4.82-.37,4.07-.41,8.17-.06,12.57.46,5.74.63,8.07.42,11.21-.11,1.57-.2,4.11-.06,5.47.13,1.01.19,1.51.32,2.52.54-.68.81-1.02,1.34-1.69,2.24-3.15,4.81-9.05,5.23-12.19.12-.59,1.01-2.04,1.83-3.09,1.35-1.68,3.54-6.55,3.59-7.9.04-1.15.65-2.29,1.62-3.06.86-.68,1.31-1.48,1.66-3.26.27-1.38.71-2.59.96-2.81.25-.22.57-.83.69-1.43.12-.59.72-1.62,1.29-2.46,1.59-1.9,2.35-3.73,1.8-4.07-.17-.18-.3-.56-.22-.95.12-.6.32-.62.86-.28.88.69,1.52-.66.68-1.43-.77-.7-.33-2.51,1.29-4.63.53-.64.89-1.46.96-1.86.11-.6,4.25-9.71,5.2-11.6.28-.43.71-1.67.89-2.69.18-1.02.57-2.06.82-2.29,1.42-1.14,5.23-9.02,5.72-11.95.25-1.47.7-2.96,1.18-3.42.48-.46.76-.9.79-1.11.03-.21.86-1.54,1.89-2.89,1.03-1.35,1.92-3.12,2.05-3.97.13-.86,1.97-4.84,3.96-8.68,5.67-10.86,5.61-11.26,5.83-12.56.48-2.87,6.83-8.88,7.63-7.13q.5.87-.58,2.98c-.26.11-.39.17-.65.28Z"/><path class="cls-4" d="m599.99,50.07c.83-.07,1.45-.12,1.87-.15,1.42.09,3.75-.17,5.18-.42,3.79-.66,11.62-.93,14.25-.74,2.63.2,6.73-.06,6.72,1.49,0,.96-1.12,1.74-6.69,4.33-5.74,2.68-7.17,3.62-8.74,5.5-1.25,1.5-2.48,2.16-3.93,2.51-1.05.25-3.47,1.08-5.23,1.83-1.77.74-5.48,2.05-8.29,2.88-2.81.83-5.44,1.85-5.72,2.27-.28.42-1.61.95-2.88,1.24-1.47.34-2.84,1.04-3.61,1.9-.77.86-1.09,1.48-.88,1.46.21-.02.13.38-.39,1.02-.53.64-1.47,2.12-2.05,3.33-1.12,2.34-2.64,5.34-4.95,8.88-.85,1.25-2.07,3.32-2.71,4.55-.42.9-.63,1.35-1.05,2.25,2.5-.69,3.75-1.03,6.24-1.72,7.32-2.01,7.98-2.26,12.86-1.1-2.98,9.22-10.53,18.12-20,20.96,0,0-6.78,2.35-8.51,2.89-5.62,1.66-10.51,12.2-12.71,15.18-1.1,1.49-2.18,3.47-2.22,4.2-.04.7-.8,2.08-1.78,2.97-2.21,2-4.31,5.63-4.73,7.92,2.31-.39,4.18-.54,4.76-.39,1.99.25,17.49-3.03,20.37-4.29,1.11-.5,3.29-1.05,4.71-1.19,4.92-.48,16.64-4.97,19.77-7.45,1.89-1.37,2.69-2.06,3.21-1.87.36.13.71.56,1.39,1.32.84.96,1.34,2.57.96,3.62-.9,2.48-10.55,10.49-13.48,11.15-2.54.57-11.6,5.46-18.52,10-2.29,1.44-4.75,2.69-5.34,2.52-.58-.17-5.15,1.45-10.17,3.32-5.02,1.87-9.58,3.51-10.16,3.34-.58-.17-2.95.3-5.04.81-3.06.75-7.03.54-10.57-.24-.66.26-1.52.55-2.38.83-2.21,1.03-3.49,1.34-4.24.97-.75-.37-1.17-.33-1.65.13-1.01,1.15-4.37.33-4.71-1.11-.49-2.05.03-6.11.95-7.86.56-.88,2.06-2.46,3.45-3.4,3.47-6.91-.75-6.17,6.77-15.86,3.16-4.89,3.85-6.34,2.57-6.02-.62.05.13-1.83,2.29-5.56,1.8-3.12,3.37-5.82,3.41-6.02s.57-.84,1.35-1.69c2.12-2.55,12.04-18.88,12.04-18.88.48-1.41,1.37-2.85,2.03-3.11,1.11-.49,3.91-5.43,4.01-7,.08-.4,1.78-2.9,3.73-5.62,1.95-2.72,3.64-5.24,3.68-5.44-.79-4.45,5.88-17.57,13.18-23.27,1.69-.35,5.14-1.47,7.77-2.5,2.62-1.04,8.21-2.58,13.46-3.59,3.97-.77,8.01-1.48,10.5-1.69-.04.25-.06.37-.1.62Z"/><path class="cls-4" d="m53.95,196.5s3.13,1.37,3.13,7.88-3.38,23.63-1.57,27c1.81,3.38,5.16,3.64,5.65.22.51-3.55-.64-22.12-.38-23.32.26-1.21,2.28-18.85,2.28-18.85l-5.98,1.45-3.13,5.62Z"/><path class="cls-4" d="m358.23,163.99s6.39-4.12,6.54-1.2-.4,19.61-.4,19.61c0,0-2.49,2.95-2.4-2.78.09-5.73,2.16-8.87.06-10.5-2.1-1.62-1.45,18.83-1.49,20.13s.29,8.42-.88,8.51-1.31-3.2-1.5-5.15.76-.84.78-2.43c.03-1.59.35-21.74.35-21.74,0,0-.28-2.34-1.98-2.47-1.69-.13.05-3.3.05-3.3l.87,1.31Z"/><path class="cls-5" d="m377.77,330.44c3.18-15.11,6.3-30.22,9.35-45.36.27-1.37.79-3.52,1.54-6.43.75-2.91,1.49-5.8,2.22-8.68.73-2.88,1.68-6.45,2.83-10.7-6.65,18.49-13.51,36.89-20.37,55.3-6.44.4-9.66.6-16.1,1,.87-18.02,1.49-36.03,1.8-54.07-.45,4.21-.87,7.76-1.26,10.61-.39,2.86-.78,5.73-1.19,8.62-.41,2.89-.76,5.03-1.04,6.4-3.17,15.1-6.45,30.17-9.81,45.23-10.6.63-15.9.95-26.51,1.58,10.91-47.28,20.19-94.71,27.03-142.75,10.68-.64,15.96-.95,26.45-1.58,1.74,12.96,3.41,25.92,4.94,38.9.51,4.75.84,8.83,1.01,12.27.17,3.44.07,6.41-.27,8.93.58-2.53,1.57-5.57,2.97-9.1,1.39-3.53,3.16-7.75,5.28-12.66,5.82-13.32,11.45-26.7,16.89-40.18,10.31-.62,15.43-.92,25.63-1.53-6.54,47.87-15.55,95.24-24.89,142.62-10.6.63-15.9.95-26.51,1.58Z"/><path class="cls-5" d="m410.72,328.48c9.19-47.39,18.12-94.76,24.6-142.61,10.25-.61,15.35-.92,25.52-1.52-6.16,47.78-14.75,95.12-23.25,142.52-10.75.64-16.12.96-26.87,1.61Z"/><path class="cls-5" d="m488.22,323.85c.56-9.68.84-14.34,1.38-23.4-6.4.4-9.59.61-15.99,1.01-2.36,9.17-3.56,13.87-6,23.62-10.46.62-15.68.94-26.14,1.56.03-.17.04-.25.07-.42,14.86-47.66,30.61-95.02,43.31-143.31,9.43-.56,18.87-1.13,28.3-1.69,1.44,46.87,1.41,93.74,1.45,140.63-.02.17-.03.25-.06.42-10.53.63-15.79.94-26.32,1.57Zm4.92-97.07c-3.99,16.29-8.23,32.52-12.46,48.75,4.09-.27,6.14-.4,10.23-.66.86-16.02,1.62-32.05,2.23-48.09Z"/><path class="cls-5" d="m576.76,318.55c1.59-15.38,3.31-30.73,5.13-46.08.17-1.37.51-3.52,1.05-6.43.53-2.9,1.07-5.78,1.6-8.65.53-2.86,1.24-6.4,2.11-10.61-5.5,18.45-10.87,36.92-15.99,55.47-6.43.4-9.65.6-16.08,1-.77-18.08-1.53-36.17-2.34-54.25-.2,4.17-.4,7.68-.6,10.52-.2,2.84-.4,5.7-.6,8.58-.2,2.88-.4,5.02-.58,6.39-1.99,15.31-3.91,30.63-5.73,45.96-10.6.63-15.9.95-26.51,1.58,6.31-47.42,13.7-94.68,18.75-142.26,10.11-.6,15.17-.91,25.35-1.51,2.22,12.74,4.42,25.49,6.57,38.25.74,4.66,1.28,8.67,1.62,12.05.35,3.38.42,6.31.23,8.79.43-2.5,1.25-5.48,2.45-8.96,1.19-3.47,2.73-7.61,4.59-12.43,5.14-13.11,10.11-26.26,14.89-39.5,10.3-.62,15.48-.93,25.93-1.55-4.33,47.44-10.9,94.62-15.34,142.05-10.6.63-15.9.95-26.51,1.58Z"/><path class="cls-5" d="m609.7,316.59c4.34-47.43,10.89-94.61,15.21-142.04,10.56-.63,15.88-.95,26.63-1.59-4.37,47.41-10.96,94.58-14.97,142.03-10.75.64-16.12.96-26.87,1.61Z"/></g></svg>