<?xml version="1.0" encoding="UTF-8"?><svg id="Layer_2" xmlns="http://www.w3.org/2000/svg" viewBox="0 0 44.61 77.97"><defs><style>.cls-1{fill:#fff;}</style></defs><g id="Layer_2-2"><path class="cls-1" d="m42.81,20.03v11.54h-15.51c0,1.64,0,3.07,0,4.5.01,6.28.02,12.56.05,18.85,0,1.11,0,2.25.21,3.33.73,3.73,3.88,5.83,8.09,5.36,1.55-.17,3.07-.57,4.6-.93.55-.13.87-.24,1.1.48.97,3.02,1.95,6.04,3.05,9.01.47,1.27.18,1.97-.94,2.63-3.28,1.92-6.82,2.94-10.58,3.11-4.96.23-9.84-.19-14.3-2.64-7.07-3.88-10.42-10.12-10.64-17.96-.23-8.01-.07-16.03-.02-24.05,0-1.22-.27-1.69-1.55-1.62-1.77.1-3.55,0-5.33.02-.69.01-.96-.23-.96-.93-.01-2.77-.1-5.54-.07-8.31,0-.37.42-.91.77-1.06C9.58,17.58,13.77,10.45,15.31,1.4,15.47.46,15.73-.03,16.84,0c3.18.08,6.36.04,9.55,0,.71,0,.89.2.89.93-.03,5.91,0,11.82-.03,17.73,0,1.11.38,1.41,1.45,1.4,4.26-.06,8.51-.03,12.77-.04.4,0,.81,0,1.35,0Z"/></g></svg>